<svg width="32" height="20" viewBox="0 0 32 20" fill="none" xmlns="http://www.w3.org/2000/svg">
<path fill-rule="evenodd" clip-rule="evenodd" d="M0 2.00023C0 0.895659 1.02335 0.000228882 2.28571 0.000228882H29.7143C30.9767 0.000228882 32 0.895659 32 2.00023V18.0002C32 19.1048 30.9767 20.0002 29.7143 20.0002H2.28571C1.02335 20.0002 0 19.1048 0 18.0002V2.00023ZM29.7143 2.00023H2.28571V18.0002H29.7143V2.00023Z" fill="white"/>
<path fill-rule="evenodd" clip-rule="evenodd" d="M20.5714 15.0002C20.5714 14.4479 21.0831 14.0002 21.7143 14.0002H26.2857C26.9169 14.0002 27.4286 14.4479 27.4286 15.0002C27.4286 15.5525 26.9169 16.0002 26.2857 16.0002H21.7143C21.0831 16.0002 20.5714 15.5525 20.5714 15.0002Z" fill="white"/>
<path fill-rule="evenodd" clip-rule="evenodd" d="M13.7143 15.0002C13.7143 14.4479 14.226 14.0002 14.8571 14.0002H17.1429C17.774 14.0002 18.2857 14.4479 18.2857 15.0002C18.2857 15.5525 17.774 16.0002 17.1429 16.0002H14.8571C14.226 16.0002 13.7143 15.5525 13.7143 15.0002Z" fill="white"/>
<path fill-rule="evenodd" clip-rule="evenodd" d="M0 6.11351C0 5.56123 0.511675 5.11351 1.14286 5.11351H30.8571C31.4883 5.11351 32 5.56123 32 6.11351C32 6.66579 31.4883 7.11351 30.8571 7.11351H1.14286C0.511675 7.11351 0 6.66579 0 6.11351Z" fill="white"/>
</svg>
