<svg width="29" height="25" viewBox="0 0 29 25" fill="none" xmlns="http://www.w3.org/2000/svg">
<path d="M15.1737 22.9825L25.2987 12.8575C27.7862 10.3575 28.1487 6.27005 25.7987 3.65755C25.2093 2.99918 24.4919 2.4679 23.6903 2.09615C22.8887 1.7244 22.0197 1.52 21.1364 1.49543C20.2531 1.47087 19.3741 1.62665 18.5531 1.95326C17.732 2.27987 16.9862 2.77046 16.3612 3.39505L14.4612 5.30755L12.8237 3.65755C10.3237 1.17005 6.23617 0.807545 3.62367 3.15755C2.96531 3.7469 2.43402 4.46431 2.06228 5.26592C1.69053 6.06754 1.48613 6.93653 1.46156 7.81981C1.43699 8.70309 1.59277 9.5821 1.91939 10.4031C2.246 11.2242 2.73659 11.97 3.36117 12.595L13.7487 22.9825C13.9383 23.1703 14.1943 23.2757 14.4612 23.2757C14.728 23.2757 14.9841 23.1703 15.1737 22.9825V22.9825Z" stroke="#D9D9D9" stroke-width="2" stroke-linecap="round" stroke-linejoin="round"/>
</svg>
