<svg width="198" height="30" viewBox="0 0 198 30" fill="none" xmlns="http://www.w3.org/2000/svg">
<path d="M46.7698 23H43.2141V8.55634C43.2141 7.55093 43.4103 6.70491 43.8026 6.01828C44.2032 5.32348 44.7631 4.80034 45.4824 4.44885C46.2099 4.08919 47.0723 3.90936 48.0695 3.90936C48.3965 3.90936 48.7112 3.93388 49.0136 3.98293C49.3161 4.0238 49.6103 4.07693 49.8964 4.14232L49.8596 6.80299C49.7043 6.76212 49.5409 6.73351 49.3692 6.71717C49.1975 6.70082 48.9973 6.69264 48.7684 6.69264C48.3433 6.69264 47.9796 6.76621 47.6772 6.91335C47.3829 7.0523 47.1581 7.26074 47.0028 7.53866C46.8475 7.81658 46.7698 8.15581 46.7698 8.55634V23ZM49.4182 9.73341V12.2347H41.24V9.73341H49.4182ZM50.7057 16.5016V16.2441C50.7057 15.2714 50.8446 14.3763 51.1225 13.5589C51.4005 12.7333 51.8051 12.0181 52.3364 11.4132C52.8677 10.8083 53.5216 10.3383 54.2982 10.0032C55.0747 9.65985 55.9657 9.48819 56.9711 9.48819C57.9765 9.48819 58.8716 9.65985 59.6563 10.0032C60.441 10.3383 61.099 10.8083 61.6304 11.4132C62.1699 12.0181 62.5786 12.7333 62.8565 13.5589C63.1344 14.3763 63.2734 15.2714 63.2734 16.2441V16.5016C63.2734 17.4661 63.1344 18.3612 62.8565 19.1868C62.5786 20.0042 62.1699 20.7194 61.6304 21.3325C61.099 21.9374 60.4451 22.4074 59.6686 22.7425C58.892 23.0777 58.0011 23.2452 56.9956 23.2452C55.9902 23.2452 55.0952 23.0777 54.3104 22.7425C53.5339 22.4074 52.8759 21.9374 52.3364 21.3325C51.8051 20.7194 51.4005 20.0042 51.1225 19.1868C50.8446 18.3612 50.7057 17.4661 50.7057 16.5016ZM54.2369 16.2441V16.5016C54.2369 17.0574 54.2859 17.5765 54.384 18.0587C54.4821 18.541 54.6374 18.9661 54.8499 19.3339C55.0706 19.6936 55.3567 19.9756 55.7082 20.1799C56.0597 20.3843 56.4888 20.4865 56.9956 20.4865C57.4861 20.4865 57.9071 20.3843 58.2585 20.1799C58.61 19.9756 58.892 19.6936 59.1046 19.3339C59.3171 18.9661 59.4724 18.541 59.5705 18.0587C59.6768 17.5765 59.7299 17.0574 59.7299 16.5016V16.2441C59.7299 15.7046 59.6768 15.1978 59.5705 14.7237C59.4724 14.2414 59.313 13.8164 59.0923 13.4485C58.8798 13.0725 58.5978 12.7783 58.2463 12.5657C57.8948 12.3532 57.4697 12.247 56.9711 12.247C56.4725 12.247 56.0474 12.3532 55.696 12.5657C55.3526 12.7783 55.0706 13.0725 54.8499 13.4485C54.6374 13.8164 54.4821 14.2414 54.384 14.7237C54.2859 15.1978 54.2369 15.7046 54.2369 16.2441ZM64.8796 16.5016V16.2441C64.8796 15.2714 65.0185 14.3763 65.2965 13.5589C65.5744 12.7333 65.979 12.0181 66.5103 11.4132C67.0416 10.8083 67.6956 10.3383 68.4721 10.0032C69.2486 9.65985 70.1396 9.48819 71.145 9.48819C72.1505 9.48819 73.0455 9.65985 73.8302 10.0032C74.6149 10.3383 75.273 10.8083 75.8043 11.4132C76.3438 12.0181 76.7525 12.7333 77.0304 13.5589C77.3083 14.3763 77.4473 15.2714 77.4473 16.2441V16.5016C77.4473 17.4661 77.3083 18.3612 77.0304 19.1868C76.7525 20.0042 76.3438 20.7194 75.8043 21.3325C75.273 21.9374 74.619 22.4074 73.8425 22.7425C73.066 23.0777 72.175 23.2452 71.1696 23.2452C70.1641 23.2452 69.2691 23.0777 68.4844 22.7425C67.7078 22.4074 67.0498 21.9374 66.5103 21.3325C65.979 20.7194 65.5744 20.0042 65.2965 19.1868C65.0185 18.3612 64.8796 17.4661 64.8796 16.5016ZM68.4108 16.2441V16.5016C68.4108 17.0574 68.4598 17.5765 68.5579 18.0587C68.656 18.541 68.8113 18.9661 69.0239 19.3339C69.2446 19.6936 69.5306 19.9756 69.8821 20.1799C70.2336 20.3843 70.6628 20.4865 71.1696 20.4865C71.66 20.4865 72.081 20.3843 72.4325 20.1799C72.7839 19.9756 73.066 19.6936 73.2785 19.3339C73.491 18.9661 73.6463 18.541 73.7444 18.0587C73.8507 17.5765 73.9038 17.0574 73.9038 16.5016V16.2441C73.9038 15.7046 73.8507 15.1978 73.7444 14.7237C73.6463 14.2414 73.4869 13.8164 73.2662 13.4485C73.0537 13.0725 72.7717 12.7783 72.4202 12.5657C72.0687 12.3532 71.6437 12.247 71.145 12.247C70.6464 12.247 70.2214 12.3532 69.8699 12.5657C69.5266 12.7783 69.2446 13.0725 69.0239 13.4485C68.8113 13.8164 68.656 14.2414 68.5579 14.7237C68.4598 15.1978 68.4108 15.7046 68.4108 16.2441ZM87.4524 20.1064V4.16684H91.0081V23H87.808L87.4524 20.1064ZM79.0657 16.5261V16.2686C79.0657 15.255 79.1802 14.3354 79.4091 13.5099C79.6379 12.6761 79.9731 11.9609 80.4145 11.3641C80.8559 10.7674 81.3995 10.3056 82.0452 9.97864C82.691 9.65167 83.4266 9.48819 84.2522 9.48819C85.0288 9.48819 85.7072 9.65167 86.2876 9.97864C86.8761 10.3056 87.3747 10.7715 87.7834 11.3764C88.2003 11.9731 88.5355 12.6802 88.7889 13.4976C89.0423 14.3068 89.2262 15.1937 89.3406 16.1583V16.7223C89.2262 17.646 89.0423 18.5042 88.7889 19.2971C88.5355 20.09 88.2003 20.7848 87.7834 21.3815C87.3747 21.9701 86.8761 22.4278 86.2876 22.7548C85.699 23.0817 85.0124 23.2452 84.2277 23.2452C83.4021 23.2452 82.6664 23.0777 82.0207 22.7425C81.3831 22.4074 80.8436 21.9374 80.4022 21.3325C79.969 20.7276 79.6379 20.0164 79.4091 19.199C79.1802 18.3816 79.0657 17.4906 79.0657 16.5261ZM82.597 16.2686V16.5261C82.597 17.0738 82.6378 17.5846 82.7196 18.0587C82.8095 18.5328 82.9525 18.9538 83.1487 19.3216C83.3531 19.6813 83.6146 19.9633 83.9334 20.1677C84.2604 20.3638 84.6568 20.4619 85.1228 20.4619C85.7277 20.4619 86.2263 20.3271 86.6186 20.0573C87.011 19.7794 87.3093 19.3993 87.5137 18.917C87.7262 18.4348 87.8488 17.8789 87.8815 17.2495V15.6433C87.857 15.1283 87.7834 14.6665 87.6608 14.2578C87.5464 13.8409 87.3747 13.4853 87.1459 13.1911C86.9252 12.8968 86.6472 12.6679 86.3121 12.5044C85.9851 12.341 85.5969 12.2592 85.1473 12.2592C84.6895 12.2592 84.2972 12.3655 83.9702 12.578C83.6433 12.7824 83.3776 13.0644 83.1732 13.424C82.9771 13.7837 82.8299 14.2087 82.7318 14.6992C82.6419 15.1815 82.597 15.7046 82.597 16.2686ZM106.126 23.2452C105.096 23.2452 104.173 23.0817 103.355 22.7548C102.538 22.4196 101.843 21.9578 101.271 21.3693C100.707 20.7807 100.273 20.0982 99.971 19.3216C99.6686 18.5369 99.5174 17.7032 99.5174 16.8204V16.3299C99.5174 15.3245 99.6604 14.4049 99.9465 13.5712C100.233 12.7374 100.641 12.014 101.173 11.4009C101.712 10.7879 102.366 10.3179 103.134 9.9909C103.903 9.65576 104.769 9.48819 105.734 9.48819C106.674 9.48819 107.508 9.6435 108.235 9.95412C108.963 10.2647 109.572 10.7061 110.062 11.2783C110.561 11.8505 110.937 12.5371 111.19 13.3382C111.443 14.1311 111.57 15.0139 111.57 15.9866V17.458H101.026V15.1038H108.1V14.8341C108.1 14.3436 108.01 13.9063 107.83 13.5221C107.659 13.1298 107.397 12.8191 107.046 12.5903C106.694 12.3614 106.245 12.247 105.697 12.247C105.231 12.247 104.831 12.3491 104.495 12.5535C104.16 12.7578 103.886 13.0439 103.674 13.4118C103.47 13.7796 103.314 14.2128 103.208 14.7114C103.11 15.2019 103.061 15.7414 103.061 16.3299V16.8204C103.061 17.3517 103.134 17.8421 103.282 18.2917C103.437 18.7413 103.653 19.1296 103.931 19.4565C104.217 19.7835 104.561 20.0369 104.961 20.2167C105.37 20.3965 105.832 20.4865 106.347 20.4865C106.984 20.4865 107.577 20.3638 108.125 20.1186C108.681 19.8652 109.159 19.4851 109.559 18.9783L111.276 20.842C110.998 21.2426 110.618 21.6267 110.136 21.9946C109.661 22.3624 109.089 22.6649 108.419 22.9019C107.749 23.1308 106.984 23.2452 106.126 23.2452ZM116.426 9.73341L118.62 13.7673L120.876 9.73341H124.641L120.889 16.2196L124.812 23H121.036L118.645 18.7331L116.254 23H112.477L116.401 16.2196L112.649 9.73341H116.426ZM129.888 12.2837V28.1006H126.357V9.73341H129.631L129.888 12.2837ZM138.287 16.2196V16.4771C138.287 17.4416 138.173 18.3367 137.944 19.1623C137.723 19.9878 137.396 20.7072 136.963 21.3202C136.53 21.9251 135.99 22.3992 135.345 22.7425C134.707 23.0777 133.971 23.2452 133.138 23.2452C132.328 23.2452 131.625 23.0817 131.029 22.7548C130.432 22.4278 129.929 21.9701 129.52 21.3815C129.12 20.7848 128.797 20.0941 128.552 19.3094C128.307 18.5247 128.119 17.6827 127.988 16.7836V16.1092C128.119 15.1447 128.307 14.2619 128.552 13.4608C128.797 12.6516 129.12 11.9527 129.52 11.3641C129.929 10.7674 130.428 10.3056 131.016 9.97864C131.613 9.65167 132.312 9.48819 133.113 9.48819C133.955 9.48819 134.695 9.64759 135.332 9.96638C135.978 10.2852 136.518 10.7429 136.951 11.3396C137.392 11.9363 137.723 12.6475 137.944 13.4731C138.173 14.2987 138.287 15.2142 138.287 16.2196ZM134.744 16.4771V16.2196C134.744 15.6556 134.695 15.1365 134.597 14.6624C134.507 14.1801 134.36 13.7592 134.155 13.3995C133.959 13.0398 133.697 12.7619 133.37 12.5657C133.052 12.3614 132.663 12.2592 132.206 12.2592C131.723 12.2592 131.311 12.3369 130.967 12.4922C130.632 12.6475 130.358 12.8723 130.146 13.1665C129.933 13.4608 129.774 13.8123 129.668 14.221C129.561 14.6297 129.496 15.0915 129.471 15.6065V17.3108C129.512 17.9157 129.627 18.4593 129.815 18.9416C130.003 19.4157 130.293 19.7917 130.685 20.0696C131.078 20.3475 131.593 20.4865 132.23 20.4865C132.696 20.4865 133.088 20.3843 133.407 20.1799C133.726 19.9674 133.984 19.6772 134.18 19.3094C134.384 18.9416 134.527 18.5165 134.609 18.0342C134.699 17.552 134.744 17.0329 134.744 16.4771ZM144.209 4.16684V23H140.666V4.16684H144.209ZM146.563 16.5016V16.2441C146.563 15.2714 146.702 14.3763 146.98 13.5589C147.258 12.7333 147.663 12.0181 148.194 11.4132C148.726 10.8083 149.379 10.3383 150.156 10.0032C150.933 9.65985 151.824 9.48819 152.829 9.48819C153.834 9.48819 154.729 9.65985 155.514 10.0032C156.299 10.3383 156.957 10.8083 157.488 11.4132C158.028 12.0181 158.436 12.7333 158.714 13.5589C158.992 14.3763 159.131 15.2714 159.131 16.2441V16.5016C159.131 17.4661 158.992 18.3612 158.714 19.1868C158.436 20.0042 158.028 20.7194 157.488 21.3325C156.957 21.9374 156.303 22.4074 155.526 22.7425C154.75 23.0777 153.859 23.2452 152.853 23.2452C151.848 23.2452 150.953 23.0777 150.168 22.7425C149.392 22.4074 148.734 21.9374 148.194 21.3325C147.663 20.7194 147.258 20.0042 146.98 19.1868C146.702 18.3612 146.563 17.4661 146.563 16.5016ZM150.095 16.2441V16.5016C150.095 17.0574 150.144 17.5765 150.242 18.0587C150.34 18.541 150.495 18.9661 150.708 19.3339C150.928 19.6936 151.215 19.9756 151.566 20.1799C151.918 20.3843 152.347 20.4865 152.853 20.4865C153.344 20.4865 153.765 20.3843 154.116 20.1799C154.468 19.9756 154.75 19.6936 154.962 19.3339C155.175 18.9661 155.33 18.541 155.428 18.0587C155.535 17.5765 155.588 17.0574 155.588 16.5016V16.2441C155.588 15.7046 155.535 15.1978 155.428 14.7237C155.33 14.2414 155.171 13.8164 154.95 13.4485C154.738 13.0725 154.456 12.7783 154.104 12.5657C153.753 12.3532 153.328 12.247 152.829 12.247C152.33 12.247 151.905 12.3532 151.554 12.5657C151.21 12.7783 150.928 13.0725 150.708 13.4485C150.495 13.8164 150.34 14.2414 150.242 14.7237C150.144 15.1978 150.095 15.7046 150.095 16.2441ZM164.833 12.6271V23H161.301V9.73341H164.624L164.833 12.6271ZM168.83 9.64759L168.768 12.9213C168.597 12.8968 168.388 12.8764 168.143 12.86C167.906 12.8355 167.689 12.8232 167.493 12.8232C166.995 12.8232 166.561 12.8886 166.194 13.0194C165.834 13.142 165.532 13.3259 165.286 13.5712C165.049 13.8164 164.869 14.1147 164.747 14.4662C164.632 14.8177 164.567 15.2182 164.551 15.6678L163.839 15.4471C163.839 14.5888 163.925 13.8 164.097 13.0807C164.269 12.3532 164.518 11.7197 164.845 11.1802C165.18 10.6407 165.589 10.2239 166.071 9.92959C166.553 9.63532 167.105 9.48819 167.726 9.48819C167.922 9.48819 168.123 9.50454 168.327 9.53724C168.531 9.56176 168.699 9.59854 168.83 9.64759ZM176.358 23.2452C175.328 23.2452 174.405 23.0817 173.587 22.7548C172.77 22.4196 172.075 21.9578 171.503 21.3693C170.939 20.7807 170.505 20.0982 170.203 19.3216C169.901 18.5369 169.749 17.7032 169.749 16.8204V16.3299C169.749 15.3245 169.892 14.4049 170.179 13.5712C170.465 12.7374 170.873 12.014 171.405 11.4009C171.944 10.7879 172.598 10.3179 173.366 9.9909C174.135 9.65576 175.001 9.48819 175.966 9.48819C176.906 9.48819 177.74 9.6435 178.467 9.95412C179.195 10.2647 179.804 10.7061 180.294 11.2783C180.793 11.8505 181.169 12.5371 181.422 13.3382C181.675 14.1311 181.802 15.0139 181.802 15.9866V17.458H171.257V15.1038H178.332V14.8341C178.332 14.3436 178.242 13.9063 178.062 13.5221C177.891 13.1298 177.629 12.8191 177.278 12.5903C176.926 12.3614 176.477 12.247 175.929 12.247C175.463 12.247 175.063 12.3491 174.727 12.5535C174.392 12.7578 174.118 13.0439 173.906 13.4118C173.702 13.7796 173.546 14.2128 173.44 14.7114C173.342 15.2019 173.293 15.7414 173.293 16.3299V16.8204C173.293 17.3517 173.366 17.8421 173.514 18.2917C173.669 18.7413 173.885 19.1296 174.163 19.4565C174.449 19.7835 174.793 20.0369 175.193 20.2167C175.602 20.3965 176.064 20.4865 176.579 20.4865C177.216 20.4865 177.809 20.3638 178.357 20.1186C178.913 19.8652 179.391 19.4851 179.791 18.9783L181.508 20.842C181.23 21.2426 180.85 21.6267 180.368 21.9946C179.893 22.3624 179.321 22.6649 178.651 22.9019C177.981 23.1308 177.216 23.2452 176.358 23.2452ZM187.344 12.6271V23H183.813V9.73341H187.136L187.344 12.6271ZM191.341 9.64759L191.28 12.9213C191.108 12.8968 190.9 12.8764 190.655 12.86C190.418 12.8355 190.201 12.8232 190.005 12.8232C189.506 12.8232 189.073 12.8886 188.705 13.0194C188.345 13.142 188.043 13.3259 187.798 13.5712C187.561 13.8164 187.381 14.1147 187.258 14.4662C187.144 14.8177 187.078 15.2182 187.062 15.6678L186.351 15.4471C186.351 14.5888 186.437 13.8 186.608 13.0807C186.78 12.3532 187.029 11.7197 187.356 11.1802C187.692 10.6407 188.1 10.2239 188.583 9.92959C189.065 9.63532 189.617 9.48819 190.238 9.48819C190.434 9.48819 190.634 9.50454 190.839 9.53724C191.043 9.56176 191.21 9.59854 191.341 9.64759Z" fill="white"/>
<path d="M15.0635 0.306641L27.7096 7.60782V22.2102L15.0635 29.5114L2.41753 22.2102V7.60782L15.0635 0.306641Z" fill="#065E7C"/>
</svg>
