<svg width="192" height="31" viewBox="0 0 192 31" fill="none" xmlns="http://www.w3.org/2000/svg">
<path d="M46.7695 23.7444H43.2137V9.30073C43.2137 8.29531 43.4099 7.44929 43.8023 6.76266C44.2028 6.06786 44.7627 5.54472 45.482 5.19323C46.2095 4.83357 47.0719 4.65374 48.0691 4.65374C48.3961 4.65374 48.7108 4.67827 49.0133 4.72731C49.3157 4.76818 49.61 4.82131 49.8961 4.88671L49.8593 7.54738C49.704 7.50651 49.5405 7.4779 49.3688 7.46155C49.1972 7.4452 48.9969 7.43703 48.768 7.43703C48.343 7.43703 47.9792 7.5106 47.6768 7.65773C47.3825 7.79669 47.1577 8.00513 47.0024 8.28305C46.8471 8.56097 46.7695 8.90019 46.7695 9.30073V23.7444ZM49.4179 10.4778V12.9791H41.2397V10.4778H49.4179ZM50.7053 17.246V16.9885C50.7053 16.0158 50.8443 15.1207 51.1222 14.3033C51.4001 13.4777 51.8047 12.7625 52.336 12.1576C52.8674 11.5527 53.5213 11.0827 54.2978 10.7475C55.0744 10.4042 55.9653 10.2326 56.9708 10.2326C57.9762 10.2326 58.8712 10.4042 59.656 10.7475C60.4407 11.0827 61.0987 11.5527 61.63 12.1576C62.1695 12.7625 62.5782 13.4777 62.8561 14.3033C63.134 15.1207 63.273 16.0158 63.273 16.9885V17.246C63.273 18.2105 63.134 19.1056 62.8561 19.9312C62.5782 20.7486 62.1695 21.4638 61.63 22.0769C61.0987 22.6818 60.4448 23.1518 59.6682 23.4869C58.8917 23.822 58.0007 23.9896 56.9953 23.9896C55.9899 23.9896 55.0948 23.822 54.3101 23.4869C53.5335 23.1518 52.8755 22.6818 52.336 22.0769C51.8047 21.4638 51.4001 20.7486 51.1222 19.9312C50.8443 19.1056 50.7053 18.2105 50.7053 17.246ZM54.2365 16.9885V17.246C54.2365 17.8018 54.2856 18.3209 54.3836 18.8031C54.4817 19.2854 54.637 19.7105 54.8496 20.0783C55.0703 20.438 55.3564 20.72 55.7079 20.9243C56.0593 21.1287 56.4885 21.2308 56.9953 21.2308C57.4857 21.2308 57.9067 21.1287 58.2582 20.9243C58.6097 20.72 58.8917 20.438 59.1042 20.0783C59.3167 19.7105 59.472 19.2854 59.5701 18.8031C59.6764 18.3209 59.7295 17.8018 59.7295 17.246V16.9885C59.7295 16.449 59.6764 15.9422 59.5701 15.4681C59.472 14.9858 59.3126 14.5608 59.0919 14.1929C58.8794 13.8169 58.5974 13.5227 58.2459 13.3101C57.8944 13.0976 57.4694 12.9913 56.9708 12.9913C56.4721 12.9913 56.0471 13.0976 55.6956 13.3101C55.3523 13.5227 55.0703 13.8169 54.8496 14.1929C54.637 14.5608 54.4817 14.9858 54.3836 15.4681C54.2856 15.9422 54.2365 16.449 54.2365 16.9885ZM64.8792 17.246V16.9885C64.8792 16.0158 65.0182 15.1207 65.2961 14.3033C65.574 13.4777 65.9786 12.7625 66.5099 12.1576C67.0413 11.5527 67.6952 11.0827 68.4717 10.7475C69.2483 10.4042 70.1393 10.2326 71.1447 10.2326C72.1501 10.2326 73.0451 10.4042 73.8299 10.7475C74.6146 11.0827 75.2726 11.5527 75.8039 12.1576C76.3434 12.7625 76.7521 13.4777 77.03 14.3033C77.3079 15.1207 77.4469 16.0158 77.4469 16.9885V17.246C77.4469 18.2105 77.3079 19.1056 77.03 19.9312C76.7521 20.7486 76.3434 21.4638 75.8039 22.0769C75.2726 22.6818 74.6187 23.1518 73.8421 23.4869C73.0656 23.822 72.1746 23.9896 71.1692 23.9896C70.1638 23.9896 69.2687 23.822 68.484 23.4869C67.7075 23.1518 67.0494 22.6818 66.5099 22.0769C65.9786 21.4638 65.574 20.7486 65.2961 19.9312C65.0182 19.1056 64.8792 18.2105 64.8792 17.246ZM68.4104 16.9885V17.246C68.4104 17.8018 68.4595 18.3209 68.5576 18.8031C68.6557 19.2854 68.811 19.7105 69.0235 20.0783C69.2442 20.438 69.5303 20.72 69.8818 20.9243C70.2333 21.1287 70.6624 21.2308 71.1692 21.2308C71.6596 21.2308 72.0806 21.1287 72.4321 20.9243C72.7836 20.72 73.0656 20.438 73.2781 20.0783C73.4906 19.7105 73.6459 19.2854 73.744 18.8031C73.8503 18.3209 73.9034 17.8018 73.9034 17.246V16.9885C73.9034 16.449 73.8503 15.9422 73.744 15.4681C73.6459 14.9858 73.4866 14.5608 73.2659 14.1929C73.0533 13.8169 72.7713 13.5227 72.4198 13.3101C72.0683 13.0976 71.6433 12.9913 71.1447 12.9913C70.646 12.9913 70.221 13.0976 69.8695 13.3101C69.5262 13.5227 69.2442 13.8169 69.0235 14.1929C68.811 14.5608 68.6557 14.9858 68.5576 15.4681C68.4595 15.9422 68.4104 16.449 68.4104 16.9885ZM87.452 20.8507V4.91123H91.0078V23.7444H87.8076L87.452 20.8507ZM79.0654 17.2705V17.013C79.0654 15.9994 79.1798 15.0798 79.4087 14.2542C79.6376 13.4205 79.9727 12.7052 80.4141 12.1085C80.8555 11.5118 81.3991 11.05 82.0448 10.723C82.6906 10.3961 83.4263 10.2326 84.2519 10.2326C85.0284 10.2326 85.7069 10.3961 86.2872 10.723C86.8757 11.05 87.3744 11.5159 87.7831 12.1208C88.2 12.7175 88.5351 13.4246 88.7885 14.242C89.0419 15.0512 89.2258 15.9381 89.3402 16.9027V17.4667C89.2258 18.3903 89.0419 19.2486 88.7885 20.0415C88.5351 20.8344 88.2 21.5292 87.7831 22.1259C87.3744 22.7144 86.8757 23.1722 86.2872 23.4992C85.6987 23.8261 85.0121 23.9896 84.2273 23.9896C83.4018 23.9896 82.6661 23.822 82.0203 23.4869C81.3827 23.1518 80.8433 22.6818 80.4019 22.0769C79.9686 21.472 79.6376 20.7608 79.4087 19.9434C79.1798 19.126 79.0654 18.235 79.0654 17.2705ZM82.5966 17.013V17.2705C82.5966 17.8182 82.6375 18.329 82.7192 18.8031C82.8091 19.2772 82.9522 19.6982 83.1484 20.066C83.3527 20.4257 83.6143 20.7077 83.9331 20.9121C84.26 21.1082 84.6565 21.2063 85.1224 21.2063C85.7273 21.2063 86.2259 21.0714 86.6183 20.8017C87.0106 20.5238 87.309 20.1437 87.5133 19.6614C87.7259 19.1791 87.8485 18.6233 87.8812 17.9939V16.3877C87.8566 15.8727 87.7831 15.4109 87.6605 15.0022C87.546 14.5853 87.3744 14.2297 87.1455 13.9354C86.9248 13.6412 86.6469 13.4123 86.3117 13.2488C85.9848 13.0853 85.5965 13.0036 85.1469 13.0036C84.6892 13.0036 84.2968 13.1099 83.9699 13.3224C83.6429 13.5267 83.3772 13.8088 83.1729 14.1684C82.9767 14.5281 82.8296 14.9531 82.7315 15.4436C82.6416 15.9258 82.5966 16.449 82.5966 17.013ZM106.126 23.9896C105.096 23.9896 104.172 23.8261 103.355 23.4992C102.537 23.164 101.843 22.7022 101.27 22.1136C100.706 21.5251 100.273 20.8426 99.9707 20.066C99.6682 19.2813 99.517 18.4476 99.517 17.5648V17.0743C99.517 16.0689 99.6601 15.1493 99.9462 14.3155C100.232 13.4818 100.641 12.7584 101.172 12.1453C101.712 11.5323 102.366 11.0622 103.134 10.7353C103.902 10.4001 104.769 10.2326 105.733 10.2326C106.673 10.2326 107.507 10.3879 108.235 10.6985C108.962 11.0091 109.571 11.4505 110.062 12.0227C110.56 12.5949 110.936 13.2815 111.19 14.0826C111.443 14.8755 111.57 15.7583 111.57 16.731V18.2023H101.025V15.8482H108.1V15.5784C108.1 15.088 108.01 14.6507 107.83 14.2665C107.658 13.8741 107.397 13.5635 107.045 13.3347C106.694 13.1058 106.244 12.9913 105.697 12.9913C105.231 12.9913 104.83 13.0935 104.495 13.2979C104.16 13.5022 103.886 13.7883 103.674 14.1561C103.469 14.524 103.314 14.9572 103.208 15.4558C103.11 15.9463 103.06 16.4858 103.06 17.0743V17.5648C103.06 18.0961 103.134 18.5865 103.281 19.0361C103.437 19.4857 103.653 19.8739 103.931 20.2009C104.217 20.5279 104.56 20.7813 104.961 20.9611C105.37 21.1409 105.832 21.2308 106.346 21.2308C106.984 21.2308 107.577 21.1082 108.124 20.863C108.68 20.6096 109.158 20.2295 109.559 19.7227L111.275 21.5864C110.998 21.987 110.617 22.3711 110.135 22.739C109.661 23.1068 109.089 23.4092 108.419 23.6463C107.748 23.8752 106.984 23.9896 106.126 23.9896ZM116.425 10.4778L118.62 14.5117L120.876 10.4778H124.64L120.888 16.964L124.812 23.7444H121.035L118.644 19.4775L116.254 23.7444H112.477L116.401 16.964L112.649 10.4778H116.425ZM129.888 13.0281V28.845H126.357V10.4778H129.63L129.888 13.0281ZM138.287 16.964V17.2214C138.287 18.186 138.172 19.0811 137.944 19.9066C137.723 20.7322 137.396 21.4515 136.963 22.0646C136.529 22.6695 135.99 23.1436 135.344 23.4869C134.707 23.822 133.971 23.9896 133.137 23.9896C132.328 23.9896 131.625 23.8261 131.028 23.4992C130.432 23.1722 129.929 22.7144 129.52 22.1259C129.12 21.5292 128.797 20.8385 128.551 20.0538C128.306 19.2691 128.118 18.4271 127.987 17.528V16.8536C128.118 15.8891 128.306 15.0063 128.551 14.2052C128.797 13.396 129.12 12.6971 129.52 12.1085C129.929 11.5118 130.427 11.05 131.016 10.723C131.613 10.3961 132.312 10.2326 133.113 10.2326C133.955 10.2326 134.694 10.392 135.332 10.7108C135.978 11.0296 136.517 11.4873 136.95 12.084C137.392 12.6807 137.723 13.3919 137.944 14.2175C138.172 15.043 138.287 15.9585 138.287 16.964ZM134.743 17.2214V16.964C134.743 16.3999 134.694 15.8809 134.596 15.4068C134.506 14.9245 134.359 14.5035 134.155 14.1439C133.959 13.7842 133.697 13.5063 133.37 13.3101C133.051 13.1058 132.663 13.0036 132.205 13.0036C131.723 13.0036 131.31 13.0813 130.967 13.2366C130.632 13.3919 130.358 13.6167 130.145 13.9109C129.933 14.2052 129.773 14.5567 129.667 14.9654C129.561 15.3741 129.496 15.8359 129.471 16.3509V18.0552C129.512 18.6601 129.626 19.2037 129.814 19.6859C130.002 20.16 130.293 20.536 130.685 20.814C131.077 21.0919 131.592 21.2308 132.23 21.2308C132.696 21.2308 133.088 21.1287 133.407 20.9243C133.726 20.7118 133.983 20.4216 134.179 20.0538C134.384 19.6859 134.527 19.2609 134.608 18.7786C134.698 18.2963 134.743 17.7773 134.743 17.2214ZM144.209 4.91123V23.7444H140.665V4.91123H144.209ZM146.563 17.246V16.9885C146.563 16.0158 146.702 15.1207 146.98 14.3033C147.258 13.4777 147.663 12.7625 148.194 12.1576C148.725 11.5527 149.379 11.0827 150.156 10.7475C150.932 10.4042 151.823 10.2326 152.829 10.2326C153.834 10.2326 154.729 10.4042 155.514 10.7475C156.298 11.0827 156.957 11.5527 157.488 12.1576C158.027 12.7625 158.436 13.4777 158.714 14.3033C158.992 15.1207 159.131 16.0158 159.131 16.9885V17.246C159.131 18.2105 158.992 19.1056 158.714 19.9312C158.436 20.7486 158.027 21.4638 157.488 22.0769C156.957 22.6818 156.303 23.1518 155.526 23.4869C154.749 23.822 153.859 23.9896 152.853 23.9896C151.848 23.9896 150.953 23.822 150.168 23.4869C149.391 23.1518 148.733 22.6818 148.194 22.0769C147.663 21.4638 147.258 20.7486 146.98 19.9312C146.702 19.1056 146.563 18.2105 146.563 17.246ZM150.094 16.9885V17.246C150.094 17.8018 150.143 18.3209 150.241 18.8031C150.34 19.2854 150.495 19.7105 150.707 20.0783C150.928 20.438 151.214 20.72 151.566 20.9243C151.917 21.1287 152.346 21.2308 152.853 21.2308C153.344 21.2308 153.765 21.1287 154.116 20.9243C154.467 20.72 154.749 20.438 154.962 20.0783C155.175 19.7105 155.33 19.2854 155.428 18.8031C155.534 18.3209 155.587 17.8018 155.587 17.246V16.9885C155.587 16.449 155.534 15.9422 155.428 15.4681C155.33 14.9858 155.17 14.5608 154.95 14.1929C154.737 13.8169 154.455 13.5227 154.104 13.3101C153.752 13.0976 153.327 12.9913 152.829 12.9913C152.33 12.9913 151.905 13.0976 151.553 13.3101C151.21 13.5227 150.928 13.8169 150.707 14.1929C150.495 14.5608 150.34 14.9858 150.241 15.4681C150.143 15.9422 150.094 16.449 150.094 16.9885ZM164.832 13.3714V23.7444H161.301V10.4778H164.624L164.832 13.3714ZM168.829 10.392L168.768 13.6657C168.596 13.6412 168.388 13.6207 168.143 13.6044C167.906 13.5799 167.689 13.5676 167.493 13.5676C166.994 13.5676 166.561 13.633 166.193 13.7638C165.834 13.8864 165.531 14.0703 165.286 14.3155C165.049 14.5608 164.869 14.8591 164.746 15.2106C164.632 15.5621 164.567 15.9626 164.55 16.4122L163.839 16.1915C163.839 15.3332 163.925 14.5444 164.097 13.8251C164.268 13.0976 164.518 12.4641 164.845 11.9246C165.18 11.3851 165.588 10.9682 166.071 10.674C166.553 10.3797 167.105 10.2326 167.726 10.2326C167.922 10.2326 168.122 10.2489 168.327 10.2816C168.531 10.3061 168.699 10.3429 168.829 10.392ZM176.358 23.9896C175.328 23.9896 174.404 23.8261 173.587 23.4992C172.769 23.164 172.075 22.7022 171.502 22.1136C170.938 21.5251 170.505 20.8426 170.203 20.066C169.9 19.2813 169.749 18.4476 169.749 17.5648V17.0743C169.749 16.0689 169.892 15.1493 170.178 14.3155C170.464 13.4818 170.873 12.7584 171.404 12.1453C171.944 11.5323 172.598 11.0622 173.366 10.7353C174.134 10.4001 175.001 10.2326 175.965 10.2326C176.905 10.2326 177.739 10.3879 178.467 10.6985C179.194 11.0091 179.803 11.4505 180.294 12.0227C180.792 12.5949 181.168 13.2815 181.422 14.0826C181.675 14.8755 181.802 15.7583 181.802 16.731V18.2023H171.257V15.8482H178.332V15.5784C178.332 15.088 178.242 14.6507 178.062 14.2665C177.89 13.8741 177.629 13.5635 177.277 13.3347C176.926 13.1058 176.476 12.9913 175.929 12.9913C175.463 12.9913 175.062 13.0935 174.727 13.2979C174.392 13.5022 174.118 13.7883 173.906 14.1561C173.701 14.524 173.546 14.9572 173.44 15.4558C173.342 15.9463 173.292 16.4858 173.292 17.0743V17.5648C173.292 18.0961 173.366 18.5865 173.513 19.0361C173.668 19.4857 173.885 19.8739 174.163 20.2009C174.449 20.5279 174.792 20.7813 175.193 20.9611C175.602 21.1409 176.064 21.2308 176.578 21.2308C177.216 21.2308 177.809 21.1082 178.356 20.863C178.912 20.6096 179.39 20.2295 179.791 19.7227L181.507 21.5864C181.23 21.987 180.849 22.3711 180.367 22.739C179.893 23.1068 179.321 23.4092 178.651 23.6463C177.98 23.8752 177.216 23.9896 176.358 23.9896ZM187.344 13.3714V23.7444H183.813V10.4778H187.135L187.344 13.3714ZM191.341 10.392L191.28 13.6657C191.108 13.6412 190.9 13.6207 190.654 13.6044C190.417 13.5799 190.201 13.5676 190.004 13.5676C189.506 13.5676 189.073 13.633 188.705 13.7638C188.345 13.8864 188.043 14.0703 187.797 14.3155C187.56 14.5608 187.381 14.8591 187.258 15.2106C187.144 15.5621 187.078 15.9626 187.062 16.4122L186.351 16.1915C186.351 15.3332 186.436 14.5444 186.608 13.8251C186.78 13.0976 187.029 12.4641 187.356 11.9246C187.691 11.3851 188.1 10.9682 188.582 10.674C189.064 10.3797 189.616 10.2326 190.237 10.2326C190.434 10.2326 190.634 10.2489 190.838 10.2816C191.043 10.3061 191.21 10.3429 191.341 10.392Z" fill="white" fill-opacity="0.3"/>
<path d="M15.0635 1.05103L27.7096 8.35221V22.9546L15.0635 30.2557L2.41753 22.9546V8.35221L15.0635 1.05103Z" fill="white" fill-opacity="0.3"/>
</svg>
