<svg width="348" height="169" viewBox="0 0 348 169" fill="none" xmlns="http://www.w3.org/2000/svg">
<g opacity="0.4">
<path fill-rule="evenodd" clip-rule="evenodd" d="M153 0.000624651C155.209 0.000624651 157 1.79147 157 4.0006V24.0005C157 26.2096 155.209 28.0005 153 28.0005C150.791 28.0005 149 26.2096 149 24.0005V4.0006C149 1.79147 150.791 0.000624651 153 0.000624651Z" fill="white"/>
<path fill-rule="evenodd" clip-rule="evenodd" d="M153 42.0004C155.209 42.0004 157 43.7912 157 46.0003V100C157 102.209 155.209 104 153 104C150.791 104 149 102.209 149 100V46.0003C149 43.7912 150.791 42.0004 153 42.0004Z" fill="white"/>
<path fill-rule="evenodd" clip-rule="evenodd" d="M139.658 0.0550481C141.837 0.418226 143.309 2.47912 142.946 4.65819L139.004 28.3109C139.084 31.9114 140.549 35.3477 143.101 37.8999C145.726 40.5254 149.287 42.0004 153 42.0004C156.713 42.0004 160.274 40.5254 162.9 37.8999C165.452 35.3477 166.917 31.9114 166.997 28.3109L163.055 4.65819C162.692 2.47912 164.164 0.418226 166.343 0.0550481C168.522 -0.30813 170.583 1.16394 170.946 3.34301L174.946 27.3429C174.982 27.5602 175 27.7801 175 28.0005C175 33.8352 172.682 39.4309 168.557 43.5567C164.431 47.6825 158.835 50.0003 153 50.0003C147.166 50.0003 141.57 47.6825 137.444 43.5567C133.318 39.4309 131 33.8352 131 28.0005C131 27.7801 131.019 27.5602 131.055 27.3429L135.055 3.34301C135.418 1.16394 137.479 -0.30813 139.658 0.0550481Z" fill="white"/>
<path fill-rule="evenodd" clip-rule="evenodd" d="M215.295 0.72435C216.364 1.47293 217 2.69576 217 4.0006V100C217 102.209 215.209 104 213 104C210.791 104 209 102.209 209 100V72.0002H185C183.865 72.0002 182.784 71.518 182.025 70.6737C181.266 69.8295 180.902 68.7027 181.023 67.5741L185 68.0002C181.023 67.5741 181.023 67.5752 181.023 67.5741L181.025 67.558L181.029 67.5217L181.043 67.3893C181.056 67.275 181.076 67.1088 181.101 66.8941C181.153 66.4647 181.23 65.8407 181.336 65.0477C181.549 63.4622 181.875 61.1983 182.337 58.4602C183.259 52.9936 184.725 45.5926 186.902 37.91C189.07 30.2573 191.989 22.1595 195.874 15.3855C199.708 8.70031 204.817 2.72011 211.633 0.241449C212.859 -0.204471 214.226 -0.0242337 215.295 0.72435ZM189.562 64.0002H209V11.2033C206.823 13.235 204.754 15.982 202.814 19.3656C199.386 25.3415 196.68 32.7436 194.599 40.0908C192.525 47.4081 191.116 54.507 190.226 59.7903C189.958 61.3758 189.738 62.7937 189.562 64.0002Z" fill="white"/>
<path d="M90.2344 156.918H85.8868V154.176H90.2344C90.9063 154.176 91.4532 154.066 91.875 153.848C92.2969 153.621 92.6055 153.309 92.8008 152.91C92.9961 152.512 93.0938 152.062 93.0938 151.562C93.0938 151.055 92.9961 150.582 92.8008 150.145C92.6055 149.707 92.2969 149.355 91.875 149.09C91.4532 148.824 90.9063 148.691 90.2344 148.691H87.1055V163H83.5899V145.938H90.2344C91.5704 145.938 92.7149 146.18 93.668 146.664C94.629 147.141 95.3633 147.801 95.8711 148.645C96.379 149.488 96.6329 150.453 96.6329 151.539C96.6329 152.641 96.379 153.594 95.8711 154.398C95.3633 155.203 94.629 155.824 93.668 156.262C92.7149 156.699 91.5704 156.918 90.2344 156.918ZM104.52 163.234C103.535 163.234 102.652 163.078 101.871 162.766C101.09 162.445 100.426 162.004 99.879 161.441C99.3399 160.879 98.9258 160.227 98.6368 159.484C98.3477 158.734 98.2032 157.938 98.2032 157.094V156.625C98.2032 155.664 98.3399 154.785 98.6133 153.988C98.8868 153.191 99.2774 152.5 99.7852 151.914C100.301 151.328 100.926 150.879 101.66 150.566C102.395 150.246 103.223 150.086 104.145 150.086C105.043 150.086 105.84 150.234 106.535 150.531C107.231 150.828 107.813 151.25 108.281 151.797C108.758 152.344 109.117 153 109.359 153.766C109.602 154.523 109.723 155.367 109.723 156.297V157.703H99.6446V155.453H106.406V155.195C106.406 154.727 106.32 154.309 106.148 153.941C105.984 153.566 105.734 153.27 105.398 153.051C105.063 152.832 104.633 152.723 104.109 152.723C103.664 152.723 103.281 152.82 102.961 153.016C102.641 153.211 102.379 153.484 102.176 153.836C101.981 154.188 101.832 154.602 101.731 155.078C101.637 155.547 101.59 156.062 101.59 156.625V157.094C101.59 157.602 101.66 158.07 101.801 158.5C101.949 158.93 102.156 159.301 102.422 159.613C102.695 159.926 103.023 160.168 103.406 160.34C103.797 160.512 104.238 160.598 104.731 160.598C105.34 160.598 105.906 160.48 106.43 160.246C106.961 160.004 107.418 159.641 107.801 159.156L109.441 160.938C109.176 161.32 108.813 161.688 108.352 162.039C107.898 162.391 107.352 162.68 106.711 162.906C106.07 163.125 105.34 163.234 104.52 163.234ZM119.133 160.234V145H122.531V163H119.473L119.133 160.234ZM111.117 156.812V156.566C111.117 155.598 111.227 154.719 111.445 153.93C111.664 153.133 111.984 152.449 112.406 151.879C112.828 151.309 113.348 150.867 113.965 150.555C114.582 150.242 115.285 150.086 116.074 150.086C116.816 150.086 117.465 150.242 118.02 150.555C118.582 150.867 119.059 151.312 119.449 151.891C119.848 152.461 120.168 153.137 120.41 153.918C120.652 154.691 120.828 155.539 120.938 156.461V157C120.828 157.883 120.652 158.703 120.41 159.461C120.168 160.219 119.848 160.883 119.449 161.453C119.059 162.016 118.582 162.453 118.02 162.766C117.457 163.078 116.801 163.234 116.051 163.234C115.262 163.234 114.559 163.074 113.941 162.754C113.332 162.434 112.816 161.984 112.395 161.406C111.981 160.828 111.664 160.148 111.445 159.367C111.227 158.586 111.117 157.734 111.117 156.812ZM114.492 156.566V156.812C114.492 157.336 114.531 157.824 114.609 158.277C114.695 158.73 114.832 159.133 115.02 159.484C115.215 159.828 115.465 160.098 115.77 160.293C116.082 160.48 116.461 160.574 116.906 160.574C117.484 160.574 117.961 160.445 118.336 160.188C118.711 159.922 118.996 159.559 119.191 159.098C119.395 158.637 119.512 158.105 119.543 157.504V155.969C119.52 155.477 119.449 155.035 119.332 154.645C119.223 154.246 119.059 153.906 118.84 153.625C118.629 153.344 118.363 153.125 118.043 152.969C117.731 152.812 117.359 152.734 116.93 152.734C116.492 152.734 116.117 152.836 115.805 153.039C115.492 153.234 115.238 153.504 115.043 153.848C114.856 154.191 114.715 154.598 114.621 155.066C114.535 155.527 114.492 156.027 114.492 156.566ZM128.731 150.32V163H125.344V150.32H128.731ZM125.133 147.016C125.133 146.523 125.305 146.117 125.648 145.797C125.992 145.477 126.453 145.316 127.031 145.316C127.602 145.316 128.059 145.477 128.402 145.797C128.754 146.117 128.93 146.523 128.93 147.016C128.93 147.508 128.754 147.914 128.402 148.234C128.059 148.555 127.602 148.715 127.031 148.715C126.453 148.715 125.992 148.555 125.648 148.234C125.305 147.914 125.133 147.508 125.133 147.016ZM139.008 160.234V145H142.406V163H139.348L139.008 160.234ZM130.992 156.812V156.566C130.992 155.598 131.102 154.719 131.32 153.93C131.539 153.133 131.859 152.449 132.281 151.879C132.703 151.309 133.223 150.867 133.84 150.555C134.457 150.242 135.16 150.086 135.949 150.086C136.691 150.086 137.34 150.242 137.895 150.555C138.457 150.867 138.934 151.312 139.324 151.891C139.723 152.461 140.043 153.137 140.285 153.918C140.527 154.691 140.703 155.539 140.813 156.461V157C140.703 157.883 140.527 158.703 140.285 159.461C140.043 160.219 139.723 160.883 139.324 161.453C138.934 162.016 138.457 162.453 137.895 162.766C137.332 163.078 136.676 163.234 135.926 163.234C135.137 163.234 134.434 163.074 133.816 162.754C133.207 162.434 132.691 161.984 132.27 161.406C131.856 160.828 131.539 160.148 131.32 159.367C131.102 158.586 130.992 157.734 130.992 156.812ZM134.367 156.566V156.812C134.367 157.336 134.406 157.824 134.484 158.277C134.57 158.73 134.707 159.133 134.895 159.484C135.09 159.828 135.34 160.098 135.645 160.293C135.957 160.48 136.336 160.574 136.781 160.574C137.359 160.574 137.836 160.445 138.211 160.188C138.586 159.922 138.871 159.559 139.066 159.098C139.27 158.637 139.387 158.105 139.418 157.504V155.969C139.395 155.477 139.324 155.035 139.207 154.645C139.098 154.246 138.934 153.906 138.715 153.625C138.504 153.344 138.238 153.125 137.918 152.969C137.606 152.812 137.234 152.734 136.805 152.734C136.367 152.734 135.992 152.836 135.68 153.039C135.367 153.234 135.113 153.504 134.918 153.848C134.731 154.191 134.59 154.598 134.496 155.066C134.41 155.527 134.367 156.027 134.367 156.566ZM144.504 156.789V156.543C144.504 155.613 144.637 154.758 144.902 153.977C145.168 153.188 145.555 152.504 146.063 151.926C146.57 151.348 147.195 150.898 147.938 150.578C148.68 150.25 149.531 150.086 150.492 150.086C151.453 150.086 152.309 150.25 153.059 150.578C153.809 150.898 154.438 151.348 154.945 151.926C155.461 152.504 155.852 153.188 156.117 153.977C156.383 154.758 156.516 155.613 156.516 156.543V156.789C156.516 157.711 156.383 158.566 156.117 159.355C155.852 160.137 155.461 160.82 154.945 161.406C154.438 161.984 153.813 162.434 153.07 162.754C152.328 163.074 151.477 163.234 150.516 163.234C149.555 163.234 148.699 163.074 147.949 162.754C147.207 162.434 146.578 161.984 146.063 161.406C145.555 160.82 145.168 160.137 144.902 159.355C144.637 158.566 144.504 157.711 144.504 156.789ZM147.879 156.543V156.789C147.879 157.32 147.926 157.816 148.02 158.277C148.113 158.738 148.262 159.145 148.465 159.496C148.676 159.84 148.949 160.109 149.285 160.305C149.621 160.5 150.031 160.598 150.516 160.598C150.984 160.598 151.387 160.5 151.723 160.305C152.059 160.109 152.328 159.84 152.531 159.496C152.734 159.145 152.883 158.738 152.977 158.277C153.078 157.816 153.129 157.32 153.129 156.789V156.543C153.129 156.027 153.078 155.543 152.977 155.09C152.883 154.629 152.731 154.223 152.52 153.871C152.316 153.512 152.047 153.23 151.711 153.027C151.375 152.824 150.969 152.723 150.492 152.723C150.016 152.723 149.609 152.824 149.273 153.027C148.945 153.23 148.676 153.512 148.465 153.871C148.262 154.223 148.113 154.629 148.02 155.09C147.926 155.543 147.879 156.027 147.879 156.543ZM170.402 163.234C169.418 163.234 168.535 163.078 167.754 162.766C166.973 162.445 166.309 162.004 165.762 161.441C165.223 160.879 164.809 160.227 164.52 159.484C164.231 158.734 164.086 157.938 164.086 157.094V156.625C164.086 155.664 164.223 154.785 164.496 153.988C164.77 153.191 165.16 152.5 165.668 151.914C166.184 151.328 166.809 150.879 167.543 150.566C168.277 150.246 169.106 150.086 170.027 150.086C170.926 150.086 171.723 150.234 172.418 150.531C173.113 150.828 173.695 151.25 174.164 151.797C174.641 152.344 175 153 175.242 153.766C175.484 154.523 175.606 155.367 175.606 156.297V157.703H165.527V155.453H172.289V155.195C172.289 154.727 172.203 154.309 172.031 153.941C171.867 153.566 171.617 153.27 171.281 153.051C170.945 152.832 170.516 152.723 169.992 152.723C169.547 152.723 169.164 152.82 168.844 153.016C168.523 153.211 168.262 153.484 168.059 153.836C167.863 154.188 167.715 154.602 167.613 155.078C167.52 155.547 167.473 156.062 167.473 156.625V157.094C167.473 157.602 167.543 158.07 167.684 158.5C167.832 158.93 168.039 159.301 168.305 159.613C168.578 159.926 168.906 160.168 169.289 160.34C169.68 160.512 170.121 160.598 170.613 160.598C171.223 160.598 171.789 160.48 172.313 160.246C172.844 160.004 173.301 159.641 173.684 159.156L175.324 160.938C175.059 161.32 174.695 161.688 174.234 162.039C173.781 162.391 173.234 162.68 172.594 162.906C171.953 163.125 171.223 163.234 170.402 163.234ZM180.832 153.027V163H177.457V150.32H180.621L180.832 153.027ZM180.34 156.215H179.426C179.426 155.277 179.547 154.434 179.789 153.684C180.031 152.926 180.371 152.281 180.809 151.75C181.246 151.211 181.766 150.801 182.367 150.52C182.977 150.23 183.656 150.086 184.406 150.086C185 150.086 185.543 150.172 186.035 150.344C186.527 150.516 186.949 150.789 187.301 151.164C187.66 151.539 187.934 152.035 188.121 152.652C188.316 153.27 188.414 154.023 188.414 154.914V163H185.016V154.902C185.016 154.34 184.938 153.902 184.781 153.59C184.625 153.277 184.395 153.059 184.09 152.934C183.793 152.801 183.426 152.734 182.988 152.734C182.535 152.734 182.141 152.824 181.805 153.004C181.477 153.184 181.203 153.434 180.984 153.754C180.773 154.066 180.613 154.434 180.504 154.855C180.395 155.277 180.34 155.73 180.34 156.215ZM197.191 150.32V152.711H189.809V150.32H197.191ZM191.637 147.191H195.012V159.18C195.012 159.547 195.059 159.828 195.152 160.023C195.254 160.219 195.402 160.355 195.598 160.434C195.793 160.504 196.039 160.539 196.336 160.539C196.547 160.539 196.734 160.531 196.898 160.516C197.07 160.492 197.215 160.469 197.332 160.445L197.344 162.93C197.055 163.023 196.742 163.098 196.406 163.152C196.07 163.207 195.699 163.234 195.293 163.234C194.551 163.234 193.902 163.113 193.348 162.871C192.801 162.621 192.379 162.223 192.082 161.676C191.785 161.129 191.637 160.41 191.637 159.52V147.191ZM202.488 153.086V163H199.113V150.32H202.289L202.488 153.086ZM206.309 150.238L206.25 153.367C206.086 153.344 205.887 153.324 205.652 153.309C205.426 153.285 205.219 153.273 205.031 153.273C204.555 153.273 204.141 153.336 203.789 153.461C203.445 153.578 203.156 153.754 202.922 153.988C202.695 154.223 202.523 154.508 202.406 154.844C202.297 155.18 202.234 155.562 202.219 155.992L201.539 155.781C201.539 154.961 201.621 154.207 201.785 153.52C201.949 152.824 202.188 152.219 202.5 151.703C202.82 151.188 203.211 150.789 203.672 150.508C204.133 150.227 204.66 150.086 205.254 150.086C205.441 150.086 205.633 150.102 205.828 150.133C206.023 150.156 206.184 150.191 206.309 150.238ZM213.504 163.234C212.52 163.234 211.637 163.078 210.856 162.766C210.074 162.445 209.41 162.004 208.863 161.441C208.324 160.879 207.91 160.227 207.621 159.484C207.332 158.734 207.188 157.938 207.188 157.094V156.625C207.188 155.664 207.324 154.785 207.598 153.988C207.871 153.191 208.262 152.5 208.77 151.914C209.285 151.328 209.91 150.879 210.645 150.566C211.379 150.246 212.207 150.086 213.129 150.086C214.027 150.086 214.824 150.234 215.52 150.531C216.215 150.828 216.797 151.25 217.266 151.797C217.742 152.344 218.102 153 218.344 153.766C218.586 154.523 218.707 155.367 218.707 156.297V157.703H208.629V155.453H215.391V155.195C215.391 154.727 215.305 154.309 215.133 153.941C214.969 153.566 214.719 153.27 214.383 153.051C214.047 152.832 213.617 152.723 213.094 152.723C212.648 152.723 212.266 152.82 211.945 153.016C211.625 153.211 211.363 153.484 211.16 153.836C210.965 154.188 210.816 154.602 210.715 155.078C210.621 155.547 210.574 156.062 210.574 156.625V157.094C210.574 157.602 210.645 158.07 210.785 158.5C210.934 158.93 211.141 159.301 211.406 159.613C211.68 159.926 212.008 160.168 212.391 160.34C212.781 160.512 213.223 160.598 213.715 160.598C214.324 160.598 214.891 160.48 215.414 160.246C215.945 160.004 216.402 159.641 216.785 159.156L218.426 160.938C218.16 161.32 217.797 161.688 217.336 162.039C216.883 162.391 216.336 162.68 215.695 162.906C215.055 163.125 214.324 163.234 213.504 163.234ZM228.656 150.32H231.715V162.578C231.715 163.734 231.457 164.715 230.941 165.52C230.434 166.332 229.723 166.945 228.809 167.359C227.895 167.781 226.832 167.992 225.621 167.992C225.09 167.992 224.527 167.922 223.934 167.781C223.348 167.641 222.785 167.422 222.246 167.125C221.715 166.828 221.27 166.453 220.91 166L222.398 164.008C222.789 164.461 223.242 164.812 223.758 165.062C224.273 165.32 224.844 165.449 225.469 165.449C226.078 165.449 226.594 165.336 227.016 165.109C227.438 164.891 227.762 164.566 227.988 164.137C228.215 163.715 228.328 163.203 228.328 162.602V153.25L228.656 150.32ZM220.125 156.812V156.566C220.125 155.598 220.242 154.719 220.477 153.93C220.719 153.133 221.059 152.449 221.496 151.879C221.941 151.309 222.481 150.867 223.113 150.555C223.746 150.242 224.461 150.086 225.258 150.086C226.102 150.086 226.809 150.242 227.379 150.555C227.949 150.867 228.418 151.312 228.785 151.891C229.152 152.461 229.438 153.137 229.641 153.918C229.852 154.691 230.016 155.539 230.133 156.461V157C230.016 157.883 229.84 158.703 229.606 159.461C229.371 160.219 229.063 160.883 228.68 161.453C228.297 162.016 227.82 162.453 227.25 162.766C226.688 163.078 226.016 163.234 225.234 163.234C224.453 163.234 223.746 163.074 223.113 162.754C222.488 162.434 221.953 161.984 221.508 161.406C221.063 160.828 220.719 160.148 220.477 159.367C220.242 158.586 220.125 157.734 220.125 156.812ZM223.5 156.566V156.812C223.5 157.336 223.551 157.824 223.652 158.277C223.754 158.73 223.91 159.133 224.121 159.484C224.34 159.828 224.609 160.098 224.93 160.293C225.258 160.48 225.645 160.574 226.09 160.574C226.707 160.574 227.211 160.445 227.602 160.188C227.992 159.922 228.285 159.559 228.481 159.098C228.676 158.637 228.789 158.105 228.82 157.504V155.969C228.805 155.477 228.738 155.035 228.621 154.645C228.504 154.246 228.34 153.906 228.129 153.625C227.918 153.344 227.645 153.125 227.309 152.969C226.973 152.812 226.574 152.734 226.113 152.734C225.668 152.734 225.281 152.836 224.953 153.039C224.633 153.234 224.363 153.504 224.145 153.848C223.934 154.191 223.773 154.598 223.664 155.066C223.555 155.527 223.5 156.027 223.5 156.566ZM241.84 159.965V150.32H245.215V163H242.039L241.84 159.965ZM242.215 157.363L243.211 157.34C243.211 158.184 243.113 158.969 242.918 159.695C242.723 160.414 242.43 161.039 242.039 161.57C241.648 162.094 241.156 162.504 240.563 162.801C239.969 163.09 239.27 163.234 238.465 163.234C237.848 163.234 237.277 163.148 236.754 162.977C236.238 162.797 235.793 162.52 235.418 162.145C235.051 161.762 234.762 161.273 234.551 160.68C234.348 160.078 234.246 159.355 234.246 158.512V150.32H237.621V158.535C237.621 158.91 237.664 159.227 237.75 159.484C237.844 159.742 237.973 159.953 238.137 160.117C238.301 160.281 238.492 160.398 238.711 160.469C238.938 160.539 239.188 160.574 239.461 160.574C240.156 160.574 240.703 160.434 241.102 160.152C241.508 159.871 241.793 159.488 241.957 159.004C242.129 158.512 242.215 157.965 242.215 157.363ZM253.629 163.234C252.645 163.234 251.762 163.078 250.981 162.766C250.199 162.445 249.535 162.004 248.988 161.441C248.449 160.879 248.035 160.227 247.746 159.484C247.457 158.734 247.313 157.938 247.313 157.094V156.625C247.313 155.664 247.449 154.785 247.723 153.988C247.996 153.191 248.387 152.5 248.895 151.914C249.41 151.328 250.035 150.879 250.77 150.566C251.504 150.246 252.332 150.086 253.254 150.086C254.152 150.086 254.949 150.234 255.645 150.531C256.34 150.828 256.922 151.25 257.391 151.797C257.867 152.344 258.227 153 258.469 153.766C258.711 154.523 258.832 155.367 258.832 156.297V157.703H248.754V155.453H255.516V155.195C255.516 154.727 255.43 154.309 255.258 153.941C255.094 153.566 254.844 153.27 254.508 153.051C254.172 152.832 253.742 152.723 253.219 152.723C252.773 152.723 252.391 152.82 252.07 153.016C251.75 153.211 251.488 153.484 251.285 153.836C251.09 154.188 250.941 154.602 250.84 155.078C250.746 155.547 250.699 156.062 250.699 156.625V157.094C250.699 157.602 250.77 158.07 250.91 158.5C251.059 158.93 251.266 159.301 251.531 159.613C251.805 159.926 252.133 160.168 252.516 160.34C252.906 160.512 253.348 160.598 253.84 160.598C254.449 160.598 255.016 160.48 255.539 160.246C256.07 160.004 256.527 159.641 256.91 159.156L258.551 160.938C258.285 161.32 257.922 161.688 257.461 162.039C257.008 162.391 256.461 162.68 255.82 162.906C255.18 163.125 254.449 163.234 253.629 163.234ZM264.563 145.938L264.176 157.785H261.363L260.965 145.938H264.563ZM260.871 161.453C260.871 160.953 261.043 160.539 261.387 160.211C261.738 159.875 262.199 159.707 262.77 159.707C263.348 159.707 263.809 159.875 264.152 160.211C264.496 160.539 264.668 160.953 264.668 161.453C264.668 161.938 264.496 162.348 264.152 162.684C263.809 163.02 263.348 163.188 262.77 163.188C262.199 163.188 261.738 163.02 261.387 162.684C261.043 162.348 260.871 161.938 260.871 161.453Z" fill="#C4C4CC"/>
</g>
</svg>
