<svg width="348" height="169" viewBox="0 0 348 169" fill="none" xmlns="http://www.w3.org/2000/svg">
<g opacity="0.4">
<path fill-rule="evenodd" clip-rule="evenodd" d="M198.894 37.2394C200.419 38.8378 200.36 41.3698 198.761 42.8947L169.411 70.8947C167.865 72.37 165.432 72.369 163.886 70.8923L149.236 56.8923C147.639 55.3661 147.582 52.8341 149.108 51.2369C150.634 49.6398 153.166 49.5824 154.764 51.1086L166.652 62.47L193.239 37.1063C194.837 35.5814 197.369 35.641 198.894 37.2394Z" fill="white"/>
<path fill-rule="evenodd" clip-rule="evenodd" d="M174 8C149.699 8 130 27.6995 130 52C130 76.3005 149.699 96 174 96C198.301 96 218 76.3005 218 52C218 27.6995 198.301 8 174 8ZM122 52C122 23.2812 145.281 0 174 0C202.719 0 226 23.2812 226 52C226 80.7188 202.719 104 174 104C145.281 104 122 80.7188 122 52Z" fill="white"/>
<path d="M64.2657 156.918H59.918V154.176H64.2657C64.9375 154.176 65.4844 154.066 65.9063 153.848C66.3282 153.621 66.6368 153.309 66.8321 152.91C67.0274 152.512 67.125 152.062 67.125 151.562C67.125 151.055 67.0274 150.582 66.8321 150.145C66.6368 149.707 66.3282 149.355 65.9063 149.09C65.4844 148.824 64.9375 148.691 64.2657 148.691H61.1368V163H57.6211V145.938H64.2657C65.6016 145.938 66.7461 146.18 67.6993 146.664C68.6602 147.141 69.3946 147.801 69.9024 148.645C70.4102 149.488 70.6641 150.453 70.6641 151.539C70.6641 152.641 70.4102 153.594 69.9024 154.398C69.3946 155.203 68.6602 155.824 67.6993 156.262C66.7461 156.699 65.6016 156.918 64.2657 156.918ZM79.5821 160.141V154.492C79.5821 154.086 79.5157 153.738 79.3829 153.449C79.25 153.152 79.043 152.922 78.7618 152.758C78.4883 152.594 78.1329 152.512 77.6954 152.512C77.3204 152.512 76.9961 152.578 76.7227 152.711C76.4493 152.836 76.2383 153.02 76.0899 153.262C75.9415 153.496 75.8672 153.773 75.8672 154.094H72.4922C72.4922 153.555 72.6172 153.043 72.8672 152.559C73.1172 152.074 73.4805 151.648 73.9571 151.281C74.4336 150.906 75 150.613 75.6563 150.402C76.3204 150.191 77.0625 150.086 77.8829 150.086C78.8672 150.086 79.7422 150.25 80.5079 150.578C81.2735 150.906 81.875 151.398 82.3125 152.055C82.7579 152.711 82.9805 153.531 82.9805 154.516V159.941C82.9805 160.637 83.0235 161.207 83.1094 161.652C83.1954 162.09 83.3204 162.473 83.4844 162.801V163H80.0743C79.9102 162.656 79.7852 162.227 79.6993 161.711C79.6211 161.188 79.5821 160.664 79.5821 160.141ZM80.0274 155.277L80.0508 157.188H78.1641C77.7188 157.188 77.3321 157.238 77.004 157.34C76.6758 157.441 76.4063 157.586 76.1954 157.773C75.9844 157.953 75.8282 158.164 75.7266 158.406C75.6329 158.648 75.586 158.914 75.586 159.203C75.586 159.492 75.6524 159.754 75.7852 159.988C75.918 160.215 76.1094 160.395 76.3594 160.527C76.6094 160.652 76.9024 160.715 77.2383 160.715C77.7461 160.715 78.1875 160.613 78.5625 160.41C78.9375 160.207 79.2266 159.957 79.4297 159.66C79.6407 159.363 79.75 159.082 79.7579 158.816L80.6485 160.246C80.5235 160.566 80.3516 160.898 80.1329 161.242C79.9219 161.586 79.6524 161.91 79.3243 162.215C78.9961 162.512 78.6016 162.758 78.1407 162.953C77.6797 163.141 77.1329 163.234 76.5 163.234C75.6954 163.234 74.9649 163.074 74.3086 162.754C73.6602 162.426 73.1446 161.977 72.7618 161.406C72.3868 160.828 72.1993 160.172 72.1993 159.438C72.1993 158.773 72.3243 158.184 72.5743 157.668C72.8243 157.152 73.1915 156.719 73.6758 156.367C74.168 156.008 74.7813 155.738 75.5157 155.559C76.25 155.371 77.1016 155.277 78.0704 155.277H80.0274ZM93.6094 150.32H96.668V162.578C96.668 163.734 96.4102 164.715 95.8946 165.52C95.3868 166.332 94.6758 166.945 93.7618 167.359C92.8477 167.781 91.7852 167.992 90.5743 167.992C90.043 167.992 89.4805 167.922 88.8868 167.781C88.3008 167.641 87.7383 167.422 87.1993 167.125C86.668 166.828 86.2227 166.453 85.8633 166L87.3516 164.008C87.7422 164.461 88.1954 164.812 88.711 165.062C89.2266 165.32 89.7969 165.449 90.4219 165.449C91.0313 165.449 91.5469 165.336 91.9688 165.109C92.3907 164.891 92.7149 164.566 92.9415 164.137C93.168 163.715 93.2813 163.203 93.2813 162.602V153.25L93.6094 150.32ZM85.0782 156.812V156.566C85.0782 155.598 85.1954 154.719 85.4297 153.93C85.6719 153.133 86.0118 152.449 86.4493 151.879C86.8946 151.309 87.4336 150.867 88.0665 150.555C88.6993 150.242 89.4141 150.086 90.211 150.086C91.0547 150.086 91.7618 150.242 92.3321 150.555C92.9024 150.867 93.3711 151.312 93.7383 151.891C94.1055 152.461 94.3907 153.137 94.5938 153.918C94.8047 154.691 94.9688 155.539 95.086 156.461V157C94.9688 157.883 94.793 158.703 94.5586 159.461C94.3243 160.219 94.0157 160.883 93.6329 161.453C93.25 162.016 92.7735 162.453 92.2032 162.766C91.6407 163.078 90.9688 163.234 90.1875 163.234C89.4063 163.234 88.6993 163.074 88.0665 162.754C87.4415 162.434 86.9063 161.984 86.461 161.406C86.0157 160.828 85.6719 160.148 85.4297 159.367C85.1954 158.586 85.0782 157.734 85.0782 156.812ZM88.4532 156.566V156.812C88.4532 157.336 88.504 157.824 88.6055 158.277C88.7071 158.73 88.8633 159.133 89.0743 159.484C89.293 159.828 89.5625 160.098 89.8829 160.293C90.211 160.48 90.5977 160.574 91.043 160.574C91.6602 160.574 92.1641 160.445 92.5547 160.188C92.9454 159.922 93.2383 159.559 93.4336 159.098C93.629 158.637 93.7422 158.105 93.7735 157.504V155.969C93.7579 155.477 93.6915 155.035 93.5743 154.645C93.4571 154.246 93.293 153.906 93.0821 153.625C92.8711 153.344 92.5977 153.125 92.2618 152.969C91.9258 152.812 91.5274 152.734 91.0665 152.734C90.6211 152.734 90.2344 152.836 89.9063 153.039C89.586 153.234 89.3165 153.504 89.0977 153.848C88.8868 154.191 88.7266 154.598 88.6172 155.066C88.5079 155.527 88.4532 156.027 88.4532 156.566ZM106.137 160.141V154.492C106.137 154.086 106.07 153.738 105.938 153.449C105.805 153.152 105.598 152.922 105.316 152.758C105.043 152.594 104.688 152.512 104.25 152.512C103.875 152.512 103.551 152.578 103.277 152.711C103.004 152.836 102.793 153.02 102.645 153.262C102.496 153.496 102.422 153.773 102.422 154.094H99.0469C99.0469 153.555 99.1719 153.043 99.4219 152.559C99.6719 152.074 100.035 151.648 100.512 151.281C100.988 150.906 101.555 150.613 102.211 150.402C102.875 150.191 103.617 150.086 104.438 150.086C105.422 150.086 106.297 150.25 107.063 150.578C107.828 150.906 108.43 151.398 108.867 152.055C109.313 152.711 109.535 153.531 109.535 154.516V159.941C109.535 160.637 109.578 161.207 109.664 161.652C109.75 162.09 109.875 162.473 110.039 162.801V163H106.629C106.465 162.656 106.34 162.227 106.254 161.711C106.176 161.188 106.137 160.664 106.137 160.141ZM106.582 155.277L106.606 157.188H104.719C104.273 157.188 103.887 157.238 103.559 157.34C103.231 157.441 102.961 157.586 102.75 157.773C102.539 157.953 102.383 158.164 102.281 158.406C102.188 158.648 102.141 158.914 102.141 159.203C102.141 159.492 102.207 159.754 102.34 159.988C102.473 160.215 102.664 160.395 102.914 160.527C103.164 160.652 103.457 160.715 103.793 160.715C104.301 160.715 104.742 160.613 105.117 160.41C105.492 160.207 105.781 159.957 105.984 159.66C106.195 159.363 106.305 159.082 106.313 158.816L107.203 160.246C107.078 160.566 106.906 160.898 106.688 161.242C106.477 161.586 106.207 161.91 105.879 162.215C105.551 162.512 105.156 162.758 104.695 162.953C104.234 163.141 103.688 163.234 103.055 163.234C102.25 163.234 101.52 163.074 100.863 162.754C100.215 162.426 99.6993 161.977 99.3165 161.406C98.9415 160.828 98.754 160.172 98.754 159.438C98.754 158.773 98.879 158.184 99.129 157.668C99.379 157.152 99.7461 156.719 100.231 156.367C100.723 156.008 101.336 155.738 102.07 155.559C102.805 155.371 103.656 155.277 104.625 155.277H106.582ZM115.512 152.945V163H112.125V150.32H115.301L115.512 152.945ZM115.043 156.215H114.106C114.106 155.332 114.211 154.52 114.422 153.777C114.641 153.027 114.957 152.379 115.371 151.832C115.793 151.277 116.313 150.848 116.93 150.543C117.547 150.238 118.262 150.086 119.074 150.086C119.637 150.086 120.152 150.172 120.621 150.344C121.09 150.508 121.492 150.77 121.828 151.129C122.172 151.48 122.438 151.941 122.625 152.512C122.813 153.074 122.906 153.75 122.906 154.539V163H119.531V154.914C119.531 154.336 119.453 153.891 119.297 153.578C119.141 153.266 118.918 153.047 118.629 152.922C118.348 152.797 118.008 152.734 117.609 152.734C117.172 152.734 116.789 152.824 116.461 153.004C116.141 153.184 115.875 153.434 115.664 153.754C115.453 154.066 115.297 154.434 115.195 154.855C115.094 155.277 115.043 155.73 115.043 156.215ZM122.59 155.828L121.383 155.98C121.383 155.152 121.484 154.383 121.688 153.672C121.898 152.961 122.207 152.336 122.613 151.797C123.027 151.258 123.539 150.84 124.148 150.543C124.758 150.238 125.461 150.086 126.258 150.086C126.867 150.086 127.422 150.176 127.922 150.355C128.422 150.527 128.848 150.805 129.199 151.188C129.559 151.562 129.832 152.055 130.02 152.664C130.215 153.273 130.313 154.02 130.313 154.902V163H126.926V154.902C126.926 154.316 126.848 153.871 126.691 153.566C126.543 153.254 126.324 153.039 126.035 152.922C125.754 152.797 125.418 152.734 125.027 152.734C124.621 152.734 124.266 152.816 123.961 152.98C123.656 153.137 123.402 153.355 123.199 153.637C122.996 153.918 122.844 154.246 122.742 154.621C122.641 154.988 122.59 155.391 122.59 155.828ZM138.762 163.234C137.777 163.234 136.895 163.078 136.113 162.766C135.332 162.445 134.668 162.004 134.121 161.441C133.582 160.879 133.168 160.227 132.879 159.484C132.59 158.734 132.445 157.938 132.445 157.094V156.625C132.445 155.664 132.582 154.785 132.856 153.988C133.129 153.191 133.52 152.5 134.027 151.914C134.543 151.328 135.168 150.879 135.902 150.566C136.637 150.246 137.465 150.086 138.387 150.086C139.285 150.086 140.082 150.234 140.777 150.531C141.473 150.828 142.055 151.25 142.523 151.797C143 152.344 143.359 153 143.602 153.766C143.844 154.523 143.965 155.367 143.965 156.297V157.703H133.887V155.453H140.648V155.195C140.648 154.727 140.563 154.309 140.391 153.941C140.227 153.566 139.977 153.27 139.641 153.051C139.305 152.832 138.875 152.723 138.352 152.723C137.906 152.723 137.523 152.82 137.203 153.016C136.883 153.211 136.621 153.484 136.418 153.836C136.223 154.188 136.074 154.602 135.973 155.078C135.879 155.547 135.832 156.062 135.832 156.625V157.094C135.832 157.602 135.902 158.07 136.043 158.5C136.191 158.93 136.398 159.301 136.664 159.613C136.938 159.926 137.266 160.168 137.648 160.34C138.039 160.512 138.481 160.598 138.973 160.598C139.582 160.598 140.148 160.48 140.672 160.246C141.203 160.004 141.66 159.641 142.043 159.156L143.684 160.938C143.418 161.32 143.055 161.688 142.594 162.039C142.141 162.391 141.594 162.68 140.953 162.906C140.313 163.125 139.582 163.234 138.762 163.234ZM149.191 153.027V163H145.816V150.32H148.981L149.191 153.027ZM148.699 156.215H147.785C147.785 155.277 147.906 154.434 148.148 153.684C148.391 152.926 148.731 152.281 149.168 151.75C149.606 151.211 150.125 150.801 150.727 150.52C151.336 150.23 152.016 150.086 152.766 150.086C153.359 150.086 153.902 150.172 154.395 150.344C154.887 150.516 155.309 150.789 155.66 151.164C156.02 151.539 156.293 152.035 156.481 152.652C156.676 153.27 156.773 154.023 156.773 154.914V163H153.375V154.902C153.375 154.34 153.297 153.902 153.141 153.59C152.984 153.277 152.754 153.059 152.449 152.934C152.152 152.801 151.785 152.734 151.348 152.734C150.895 152.734 150.5 152.824 150.164 153.004C149.836 153.184 149.563 153.434 149.344 153.754C149.133 154.066 148.973 154.434 148.863 154.855C148.754 155.277 148.699 155.73 148.699 156.215ZM165.551 150.32V152.711H158.168V150.32H165.551ZM159.996 147.191H163.371V159.18C163.371 159.547 163.418 159.828 163.512 160.023C163.613 160.219 163.762 160.355 163.957 160.434C164.152 160.504 164.398 160.539 164.695 160.539C164.906 160.539 165.094 160.531 165.258 160.516C165.43 160.492 165.574 160.469 165.691 160.445L165.703 162.93C165.414 163.023 165.102 163.098 164.766 163.152C164.43 163.207 164.059 163.234 163.652 163.234C162.91 163.234 162.262 163.113 161.707 162.871C161.16 162.621 160.738 162.223 160.441 161.676C160.145 161.129 159.996 160.41 159.996 159.52V147.191ZM166.629 156.789V156.543C166.629 155.613 166.762 154.758 167.027 153.977C167.293 153.188 167.68 152.504 168.188 151.926C168.695 151.348 169.32 150.898 170.063 150.578C170.805 150.25 171.656 150.086 172.617 150.086C173.578 150.086 174.434 150.25 175.184 150.578C175.934 150.898 176.563 151.348 177.07 151.926C177.586 152.504 177.977 153.188 178.242 153.977C178.508 154.758 178.641 155.613 178.641 156.543V156.789C178.641 157.711 178.508 158.566 178.242 159.355C177.977 160.137 177.586 160.82 177.07 161.406C176.563 161.984 175.938 162.434 175.195 162.754C174.453 163.074 173.602 163.234 172.641 163.234C171.68 163.234 170.824 163.074 170.074 162.754C169.332 162.434 168.703 161.984 168.188 161.406C167.68 160.82 167.293 160.137 167.027 159.355C166.762 158.566 166.629 157.711 166.629 156.789ZM170.004 156.543V156.789C170.004 157.32 170.051 157.816 170.145 158.277C170.238 158.738 170.387 159.145 170.59 159.496C170.801 159.84 171.074 160.109 171.41 160.305C171.746 160.5 172.156 160.598 172.641 160.598C173.109 160.598 173.512 160.5 173.848 160.305C174.184 160.109 174.453 159.84 174.656 159.496C174.859 159.145 175.008 158.738 175.102 158.277C175.203 157.816 175.254 157.32 175.254 156.789V156.543C175.254 156.027 175.203 155.543 175.102 155.09C175.008 154.629 174.856 154.223 174.645 153.871C174.441 153.512 174.172 153.23 173.836 153.027C173.5 152.824 173.094 152.723 172.617 152.723C172.141 152.723 171.734 152.824 171.398 153.027C171.07 153.23 170.801 153.512 170.59 153.871C170.387 154.223 170.238 154.629 170.145 155.09C170.051 155.543 170.004 156.027 170.004 156.543ZM193.535 160.141V154.492C193.535 154.086 193.469 153.738 193.336 153.449C193.203 153.152 192.996 152.922 192.715 152.758C192.441 152.594 192.086 152.512 191.648 152.512C191.273 152.512 190.949 152.578 190.676 152.711C190.402 152.836 190.191 153.02 190.043 153.262C189.895 153.496 189.82 153.773 189.82 154.094H186.445C186.445 153.555 186.57 153.043 186.82 152.559C187.07 152.074 187.434 151.648 187.91 151.281C188.387 150.906 188.953 150.613 189.609 150.402C190.273 150.191 191.016 150.086 191.836 150.086C192.82 150.086 193.695 150.25 194.461 150.578C195.227 150.906 195.828 151.398 196.266 152.055C196.711 152.711 196.934 153.531 196.934 154.516V159.941C196.934 160.637 196.977 161.207 197.063 161.652C197.148 162.09 197.273 162.473 197.438 162.801V163H194.027C193.863 162.656 193.738 162.227 193.652 161.711C193.574 161.188 193.535 160.664 193.535 160.141ZM193.981 155.277L194.004 157.188H192.117C191.672 157.188 191.285 157.238 190.957 157.34C190.629 157.441 190.359 157.586 190.148 157.773C189.938 157.953 189.781 158.164 189.68 158.406C189.586 158.648 189.539 158.914 189.539 159.203C189.539 159.492 189.606 159.754 189.738 159.988C189.871 160.215 190.063 160.395 190.313 160.527C190.563 160.652 190.856 160.715 191.191 160.715C191.699 160.715 192.141 160.613 192.516 160.41C192.891 160.207 193.18 159.957 193.383 159.66C193.594 159.363 193.703 159.082 193.711 158.816L194.602 160.246C194.477 160.566 194.305 160.898 194.086 161.242C193.875 161.586 193.606 161.91 193.277 162.215C192.949 162.512 192.555 162.758 192.094 162.953C191.633 163.141 191.086 163.234 190.453 163.234C189.648 163.234 188.918 163.074 188.262 162.754C187.613 162.426 187.098 161.977 186.715 161.406C186.34 160.828 186.152 160.172 186.152 159.438C186.152 158.773 186.277 158.184 186.527 157.668C186.777 157.152 187.145 156.719 187.629 156.367C188.121 156.008 188.734 155.738 189.469 155.559C190.203 155.371 191.055 155.277 192.023 155.277H193.981ZM202.91 152.758V167.875H199.535V150.32H202.664L202.91 152.758ZM210.938 156.52V156.766C210.938 157.688 210.828 158.543 210.609 159.332C210.398 160.121 210.086 160.809 209.672 161.395C209.258 161.973 208.742 162.426 208.125 162.754C207.516 163.074 206.813 163.234 206.016 163.234C205.242 163.234 204.57 163.078 204 162.766C203.43 162.453 202.949 162.016 202.559 161.453C202.176 160.883 201.867 160.223 201.633 159.473C201.398 158.723 201.219 157.918 201.094 157.059V156.414C201.219 155.492 201.398 154.648 201.633 153.883C201.867 153.109 202.176 152.441 202.559 151.879C202.949 151.309 203.426 150.867 203.988 150.555C204.559 150.242 205.227 150.086 205.992 150.086C206.797 150.086 207.504 150.238 208.113 150.543C208.731 150.848 209.246 151.285 209.66 151.855C210.082 152.426 210.398 153.105 210.609 153.895C210.828 154.684 210.938 155.559 210.938 156.52ZM207.551 156.766V156.52C207.551 155.98 207.504 155.484 207.41 155.031C207.324 154.57 207.184 154.168 206.988 153.824C206.801 153.48 206.551 153.215 206.238 153.027C205.934 152.832 205.563 152.734 205.125 152.734C204.664 152.734 204.27 152.809 203.941 152.957C203.621 153.105 203.359 153.32 203.156 153.602C202.953 153.883 202.801 154.219 202.699 154.609C202.598 155 202.535 155.441 202.512 155.934V157.562C202.551 158.141 202.66 158.66 202.84 159.121C203.02 159.574 203.297 159.934 203.672 160.199C204.047 160.465 204.539 160.598 205.148 160.598C205.594 160.598 205.969 160.5 206.273 160.305C206.578 160.102 206.824 159.824 207.012 159.473C207.207 159.121 207.344 158.715 207.422 158.254C207.508 157.793 207.551 157.297 207.551 156.766ZM216.41 153.086V163H213.035V150.32H216.211L216.41 153.086ZM220.231 150.238L220.172 153.367C220.008 153.344 219.809 153.324 219.574 153.309C219.348 153.285 219.141 153.273 218.953 153.273C218.477 153.273 218.063 153.336 217.711 153.461C217.367 153.578 217.078 153.754 216.844 153.988C216.617 154.223 216.445 154.508 216.328 154.844C216.219 155.18 216.156 155.562 216.141 155.992L215.461 155.781C215.461 154.961 215.543 154.207 215.707 153.52C215.871 152.824 216.109 152.219 216.422 151.703C216.742 151.188 217.133 150.789 217.594 150.508C218.055 150.227 218.582 150.086 219.176 150.086C219.363 150.086 219.555 150.102 219.75 150.133C219.945 150.156 220.106 150.191 220.231 150.238ZM220.934 156.789V156.543C220.934 155.613 221.066 154.758 221.332 153.977C221.598 153.188 221.984 152.504 222.492 151.926C223 151.348 223.625 150.898 224.367 150.578C225.109 150.25 225.961 150.086 226.922 150.086C227.883 150.086 228.738 150.25 229.488 150.578C230.238 150.898 230.867 151.348 231.375 151.926C231.891 152.504 232.281 153.188 232.547 153.977C232.813 154.758 232.945 155.613 232.945 156.543V156.789C232.945 157.711 232.813 158.566 232.547 159.355C232.281 160.137 231.891 160.82 231.375 161.406C230.867 161.984 230.242 162.434 229.5 162.754C228.758 163.074 227.906 163.234 226.945 163.234C225.984 163.234 225.129 163.074 224.379 162.754C223.637 162.434 223.008 161.984 222.492 161.406C221.984 160.82 221.598 160.137 221.332 159.355C221.066 158.566 220.934 157.711 220.934 156.789ZM224.309 156.543V156.789C224.309 157.32 224.356 157.816 224.449 158.277C224.543 158.738 224.691 159.145 224.895 159.496C225.106 159.84 225.379 160.109 225.715 160.305C226.051 160.5 226.461 160.598 226.945 160.598C227.414 160.598 227.816 160.5 228.152 160.305C228.488 160.109 228.758 159.84 228.961 159.496C229.164 159.145 229.313 158.738 229.406 158.277C229.508 157.816 229.559 157.32 229.559 156.789V156.543C229.559 156.027 229.508 155.543 229.406 155.09C229.313 154.629 229.16 154.223 228.949 153.871C228.746 153.512 228.477 153.23 228.141 153.027C227.805 152.824 227.398 152.723 226.922 152.723C226.445 152.723 226.039 152.824 225.703 153.027C225.375 153.23 225.106 153.512 224.895 153.871C224.691 154.223 224.543 154.629 224.449 155.09C224.356 155.543 224.309 156.027 224.309 156.543ZM239.145 160.539L241.957 150.32H245.484L241.207 163H239.074L239.145 160.539ZM237.211 150.32L240.035 160.551L240.094 163H237.949L233.672 150.32H237.211ZM253.652 160.141V154.492C253.652 154.086 253.586 153.738 253.453 153.449C253.32 153.152 253.113 152.922 252.832 152.758C252.559 152.594 252.203 152.512 251.766 152.512C251.391 152.512 251.066 152.578 250.793 152.711C250.52 152.836 250.309 153.02 250.16 153.262C250.012 153.496 249.938 153.773 249.938 154.094H246.563C246.563 153.555 246.688 153.043 246.938 152.559C247.188 152.074 247.551 151.648 248.027 151.281C248.504 150.906 249.07 150.613 249.727 150.402C250.391 150.191 251.133 150.086 251.953 150.086C252.938 150.086 253.813 150.25 254.578 150.578C255.344 150.906 255.945 151.398 256.383 152.055C256.828 152.711 257.051 153.531 257.051 154.516V159.941C257.051 160.637 257.094 161.207 257.18 161.652C257.266 162.09 257.391 162.473 257.555 162.801V163H254.145C253.981 162.656 253.856 162.227 253.77 161.711C253.691 161.188 253.652 160.664 253.652 160.141ZM254.098 155.277L254.121 157.188H252.234C251.789 157.188 251.402 157.238 251.074 157.34C250.746 157.441 250.477 157.586 250.266 157.773C250.055 157.953 249.898 158.164 249.797 158.406C249.703 158.648 249.656 158.914 249.656 159.203C249.656 159.492 249.723 159.754 249.856 159.988C249.988 160.215 250.18 160.395 250.43 160.527C250.68 160.652 250.973 160.715 251.309 160.715C251.816 160.715 252.258 160.613 252.633 160.41C253.008 160.207 253.297 159.957 253.5 159.66C253.711 159.363 253.82 159.082 253.828 158.816L254.719 160.246C254.594 160.566 254.422 160.898 254.203 161.242C253.992 161.586 253.723 161.91 253.395 162.215C253.066 162.512 252.672 162.758 252.211 162.953C251.75 163.141 251.203 163.234 250.57 163.234C249.766 163.234 249.035 163.074 248.379 162.754C247.731 162.426 247.215 161.977 246.832 161.406C246.457 160.828 246.27 160.172 246.27 159.438C246.27 158.773 246.395 158.184 246.645 157.668C246.895 157.152 247.262 156.719 247.746 156.367C248.238 156.008 248.852 155.738 249.586 155.559C250.32 155.371 251.172 155.277 252.141 155.277H254.098ZM267.141 160.234V145H270.539V163H267.481L267.141 160.234ZM259.125 156.812V156.566C259.125 155.598 259.234 154.719 259.453 153.93C259.672 153.133 259.992 152.449 260.414 151.879C260.836 151.309 261.356 150.867 261.973 150.555C262.59 150.242 263.293 150.086 264.082 150.086C264.824 150.086 265.473 150.242 266.027 150.555C266.59 150.867 267.066 151.312 267.457 151.891C267.856 152.461 268.176 153.137 268.418 153.918C268.66 154.691 268.836 155.539 268.945 156.461V157C268.836 157.883 268.66 158.703 268.418 159.461C268.176 160.219 267.856 160.883 267.457 161.453C267.066 162.016 266.59 162.453 266.027 162.766C265.465 163.078 264.809 163.234 264.059 163.234C263.27 163.234 262.566 163.074 261.949 162.754C261.34 162.434 260.824 161.984 260.402 161.406C259.988 160.828 259.672 160.148 259.453 159.367C259.234 158.586 259.125 157.734 259.125 156.812ZM262.5 156.566V156.812C262.5 157.336 262.539 157.824 262.617 158.277C262.703 158.73 262.84 159.133 263.027 159.484C263.223 159.828 263.473 160.098 263.777 160.293C264.09 160.48 264.469 160.574 264.914 160.574C265.492 160.574 265.969 160.445 266.344 160.188C266.719 159.922 267.004 159.559 267.199 159.098C267.402 158.637 267.52 158.105 267.551 157.504V155.969C267.527 155.477 267.457 155.035 267.34 154.645C267.231 154.246 267.066 153.906 266.848 153.625C266.637 153.344 266.371 153.125 266.051 152.969C265.738 152.812 265.367 152.734 264.938 152.734C264.5 152.734 264.125 152.836 263.813 153.039C263.5 153.234 263.246 153.504 263.051 153.848C262.863 154.191 262.723 154.598 262.629 155.066C262.543 155.527 262.5 156.027 262.5 156.566ZM272.637 156.789V156.543C272.637 155.613 272.77 154.758 273.035 153.977C273.301 153.188 273.688 152.504 274.195 151.926C274.703 151.348 275.328 150.898 276.07 150.578C276.813 150.25 277.664 150.086 278.625 150.086C279.586 150.086 280.441 150.25 281.191 150.578C281.941 150.898 282.57 151.348 283.078 151.926C283.594 152.504 283.984 153.188 284.25 153.977C284.516 154.758 284.648 155.613 284.648 156.543V156.789C284.648 157.711 284.516 158.566 284.25 159.355C283.984 160.137 283.594 160.82 283.078 161.406C282.57 161.984 281.945 162.434 281.203 162.754C280.461 163.074 279.609 163.234 278.648 163.234C277.688 163.234 276.832 163.074 276.082 162.754C275.34 162.434 274.711 161.984 274.195 161.406C273.688 160.82 273.301 160.137 273.035 159.355C272.77 158.566 272.637 157.711 272.637 156.789ZM276.012 156.543V156.789C276.012 157.32 276.059 157.816 276.152 158.277C276.246 158.738 276.395 159.145 276.598 159.496C276.809 159.84 277.082 160.109 277.418 160.305C277.754 160.5 278.164 160.598 278.648 160.598C279.117 160.598 279.52 160.5 279.856 160.305C280.191 160.109 280.461 159.84 280.664 159.496C280.867 159.145 281.016 158.738 281.109 158.277C281.211 157.816 281.262 157.32 281.262 156.789V156.543C281.262 156.027 281.211 155.543 281.109 155.09C281.016 154.629 280.863 154.223 280.652 153.871C280.449 153.512 280.18 153.23 279.844 153.027C279.508 152.824 279.102 152.723 278.625 152.723C278.148 152.723 277.742 152.824 277.406 153.027C277.078 153.23 276.809 153.512 276.598 153.871C276.395 154.223 276.246 154.629 276.152 155.09C276.059 155.543 276.012 156.027 276.012 156.543ZM290.531 145.938L290.145 157.785H287.332L286.934 145.938H290.531ZM286.84 161.453C286.84 160.953 287.012 160.539 287.356 160.211C287.707 159.875 288.168 159.707 288.738 159.707C289.316 159.707 289.777 159.875 290.121 160.211C290.465 160.539 290.637 160.953 290.637 161.453C290.637 161.938 290.465 162.348 290.121 162.684C289.777 163.02 289.316 163.188 288.738 163.188C288.168 163.188 287.707 163.02 287.356 162.684C287.012 162.348 286.84 161.938 286.84 161.453Z" fill="#C4C4CC"/>
</g>
</svg>
