<svg width="24" height="24" viewBox="0 0 24 24" fill="none" xmlns="http://www.w3.org/2000/svg">
<mask id="path-1-inside-1_49_1872" fill="white">
<path d="M18.7168 18.3603C17.7752 18.3603 16.8896 17.9937 16.2237 17.3282L12.624 13.7283C12.3713 13.4749 11.9308 13.4757 11.6781 13.7283L8.06525 17.3413C7.39939 18.0069 6.51377 18.3735 5.57219 18.3735H4.86279L9.42198 22.9326C10.8458 24.3564 13.1543 24.3564 14.5782 22.9326L19.1504 18.3603H18.7168Z"/>
<path d="M5.57211 5.62691C6.51369 5.62691 7.39931 5.99354 8.06517 6.65907L11.678 10.2726C11.9382 10.5329 12.3631 10.5339 12.6239 10.2723L16.2236 6.67224C16.8895 6.00671 17.7751 5.64008 18.7167 5.64008H19.1503L14.5783 1.06793C13.1542 -0.355978 10.8457 -0.355978 9.4219 1.06793L4.86292 5.62693L5.57211 5.62691Z"/>
<path d="M22.9321 9.42214L20.1692 6.65918C20.1084 6.68354 20.0425 6.69875 19.9729 6.69875H18.7167C18.0672 6.69875 17.4315 6.96218 16.9725 7.42144L13.3729 11.0212C13.0361 11.358 12.5934 11.5266 12.1512 11.5266C11.7086 11.5266 11.2663 11.358 10.9295 11.0215L7.31628 7.40828C6.85736 6.94892 6.22159 6.6856 5.57212 6.6856H4.02745C3.96156 6.6856 3.9 6.67007 3.84187 6.64818L1.06793 9.42214C-0.355977 10.846 -0.355977 13.1545 1.06793 14.5784L3.84176 17.3523C3.89999 17.3304 3.96156 17.3148 4.02745 17.3148H5.57212C6.22159 17.3148 6.85736 17.0515 7.31628 16.5923L10.9292 12.9794C11.5822 12.3269 12.7206 12.3267 13.3729 12.9797L16.9725 16.5791C17.4315 17.0383 18.0672 17.3018 18.7167 17.3018H19.9729C20.0425 17.3018 20.1084 17.317 20.1692 17.3414L22.9321 14.5784C24.3559 13.1545 24.3559 10.846 22.9321 9.42214Z"/>
</mask>
<path d="M16.2237 17.3282L14.8095 18.7424L14.8099 18.7427L16.2237 17.3282ZM12.624 13.7283L11.208 15.1407L11.2098 15.1425L12.624 13.7283ZM11.6781 13.7283L10.2639 12.3141L10.2639 12.3142L11.6781 13.7283ZM8.06525 17.3413L9.47912 18.7559L9.47949 18.7555L8.06525 17.3413ZM4.86279 18.3735V16.3735H0.0343016L3.44859 19.7877L4.86279 18.3735ZM9.42198 22.9326L10.8362 21.5184L10.8362 21.5184L9.42198 22.9326ZM14.5782 22.9326L15.9924 24.3469L15.9925 24.3468L14.5782 22.9326ZM19.1504 18.3603L20.5646 19.7745L23.9787 16.3603H19.1504V18.3603ZM5.57211 5.62691V3.62691H5.57207L5.57211 5.62691ZM8.06517 6.65907L9.47951 5.24499L9.47904 5.24452L8.06517 6.65907ZM11.678 10.2726L13.0926 8.85869L13.0924 8.85852L11.678 10.2726ZM12.6239 10.2723L11.2096 8.85815L11.2077 8.86009L12.6239 10.2723ZM16.2236 6.67224L14.8098 5.25769L14.8094 5.25809L16.2236 6.67224ZM19.1503 5.64008V7.64008H23.9786L20.5645 4.22589L19.1503 5.64008ZM14.5783 1.06793L15.9925 -0.346261L15.9924 -0.346331L14.5783 1.06793ZM9.4219 1.06793L10.8361 2.48215L10.8362 2.48209L9.4219 1.06793ZM4.86292 5.62693L3.4487 4.21271L0.0343945 7.62703L4.86296 7.62693L4.86292 5.62693ZM22.9321 9.42214L24.3464 8.00798L24.3464 8.00792L22.9321 9.42214ZM20.1692 6.65918L21.5834 5.24497L20.6504 4.31195L19.4255 4.80259L20.1692 6.65918ZM16.9725 7.42144L18.3868 8.83563L18.3873 8.83515L16.9725 7.42144ZM13.3729 11.0212L14.7871 12.4354L14.7872 12.4354L13.3729 11.0212ZM10.9295 11.0215L9.51528 12.4357L9.51573 12.4362L10.9295 11.0215ZM7.31628 7.40828L5.9014 8.82183L5.90207 8.82249L7.31628 7.40828ZM3.84187 6.64818L4.54683 4.77654L3.33974 4.32188L2.42766 5.23397L3.84187 6.64818ZM1.06793 9.42214L2.48215 10.8363L2.48215 10.8363L1.06793 9.42214ZM1.06793 14.5784L2.48215 13.1642L2.48215 13.1642L1.06793 14.5784ZM3.84176 17.3523L2.42755 18.7665L3.33892 19.6778L4.54539 19.2244L3.84176 17.3523ZM7.31628 16.5923L5.90207 15.1781L5.90157 15.1786L7.31628 16.5923ZM10.9292 12.9794L9.51553 11.5646L9.51494 11.5652L10.9292 12.9794ZM13.3729 12.9797L11.958 14.3932L11.9588 14.3939L13.3729 12.9797ZM16.9725 16.5791L18.3873 15.1654L18.3867 15.1648L16.9725 16.5791ZM20.1692 17.3414L19.425 19.1977L20.6501 19.6889L21.5834 18.7556L20.1692 17.3414ZM22.9321 14.5784L24.3464 15.9926L24.3464 15.9926L22.9321 14.5784ZM18.7168 16.3603C18.3053 16.3603 17.9283 16.2042 17.6376 15.9136L14.8099 18.7427C15.8509 19.7833 17.2451 20.3603 18.7168 20.3603V16.3603ZM17.638 15.914L14.0382 12.3142L11.2098 15.1425L14.8095 18.7424L17.638 15.914ZM14.04 12.3159C13.0034 11.2766 11.2951 11.2829 10.2639 12.3141L13.0924 15.1425C12.8048 15.4301 12.4509 15.5384 12.1521 15.5386C11.853 15.5387 11.497 15.4305 11.208 15.1407L14.04 12.3159ZM10.2639 12.3142L6.65101 15.9271L9.47949 18.7555L13.0924 15.1425L10.2639 12.3142ZM6.65138 15.9268C6.36069 16.2173 5.98367 16.3735 5.57219 16.3735V20.3735C7.04387 20.3735 8.4381 19.7964 9.47912 18.7559L6.65138 15.9268ZM5.57219 16.3735H4.86279V20.3735H5.57219V16.3735ZM3.44859 19.7877L8.00778 24.3468L10.8362 21.5184L6.27699 16.9593L3.44859 19.7877ZM8.00776 24.3468C10.2126 26.5517 13.7875 26.5516 15.9924 24.3469L13.1641 21.5183C12.5212 22.1612 11.4789 22.1611 10.8362 21.5184L8.00776 24.3468ZM15.9925 24.3468L20.5646 19.7745L17.7361 16.9461L13.164 21.5184L15.9925 24.3468ZM19.1504 16.3603H18.7168V20.3603H19.1504V16.3603ZM5.57211 7.62691C5.9836 7.62691 6.36061 7.78308 6.65129 8.07362L9.47904 5.24452C8.43802 4.204 7.04378 3.62691 5.57211 3.62691V7.62691ZM6.65083 8.07316L10.2637 11.6867L13.0924 8.85852L9.47951 5.24499L6.65083 8.07316ZM10.2635 11.6865C11.3026 12.726 12.9956 12.7321 14.0401 11.6845L11.2077 8.86009C11.7306 8.3357 12.5739 8.33979 13.0926 8.85869L10.2635 11.6865ZM14.0382 11.6864L17.6379 8.08639L14.8094 5.25809L11.2097 8.85815L14.0382 11.6864ZM17.6375 8.0868C17.9282 7.79624 18.3052 7.64008 18.7167 7.64008V3.64008C17.245 3.64008 15.8508 4.21718 14.8098 5.25769L17.6375 8.0868ZM18.7167 7.64008H19.1503V3.64008H18.7167V7.64008ZM20.5645 4.22589L15.9925 -0.346261L13.164 2.48213L17.736 7.05428L20.5645 4.22589ZM15.9924 -0.346331C13.7874 -2.55116 10.2125 -2.55132 8.00763 -0.346225L10.8362 2.48209C11.4788 1.83936 12.5211 1.83921 13.1641 2.4822L15.9924 -0.346331ZM8.00768 -0.346279L3.4487 4.21271L6.27713 7.04114L10.8361 2.48215L8.00768 -0.346279ZM4.86296 7.62693L5.57215 7.62691L5.57207 3.62691L4.86287 3.62693L4.86296 7.62693ZM24.3464 8.00792L21.5834 5.24497L18.755 8.07339L21.5179 10.8363L24.3464 8.00792ZM19.4255 4.80259C19.5605 4.7485 19.7473 4.69875 19.9729 4.69875V8.69875C20.3377 8.69875 20.6562 8.61858 20.9129 8.51577L19.4255 4.80259ZM19.9729 4.69875H18.7167V8.69875H19.9729V4.69875ZM18.7167 4.69875C17.5367 4.69875 16.392 5.17296 15.5578 6.00772L18.3873 8.83515C18.4709 8.7514 18.5977 8.69875 18.7167 8.69875V4.69875ZM15.5583 6.00725L11.9587 9.60697L14.7872 12.4354L18.3868 8.83563L15.5583 6.00725ZM11.9587 9.60696C12.013 9.55267 12.0862 9.52657 12.1512 9.52657V13.5266C13.1007 13.5266 14.0591 13.1634 14.7871 12.4354L11.9587 9.60696ZM12.1512 9.52657C12.2158 9.52657 12.289 9.55262 12.3433 9.60682L9.51573 12.4362C10.2435 13.1634 11.2013 13.5266 12.1512 13.5266V9.52657ZM12.3437 9.60727L8.7305 5.99406L5.90207 8.82249L9.51528 12.4357L12.3437 9.60727ZM8.73116 5.99473C7.89678 5.15956 6.75187 4.6856 5.57212 4.6856V8.6856C5.6913 8.6856 5.81794 8.73828 5.9014 8.82183L8.73116 5.99473ZM5.57212 4.6856H4.02745V8.6856H5.57212V4.6856ZM4.02745 4.6856C4.27909 4.6856 4.46476 4.74563 4.54683 4.77654L3.13692 8.51982C3.33523 8.59451 3.64403 8.6856 4.02745 8.6856V4.6856ZM2.42766 5.23397L-0.346287 8.00793L2.48215 10.8363L5.25609 8.06239L2.42766 5.23397ZM-0.346286 8.00792C-2.55124 10.2129 -2.55124 13.7877 -0.346286 15.9926L2.48215 13.1642C1.83928 12.5213 1.83928 11.4792 2.48215 10.8363L-0.346286 8.00792ZM-0.346287 15.9926L2.42755 18.7665L5.25598 15.938L2.48215 13.1642L-0.346287 15.9926ZM4.54539 19.2244C4.46457 19.2548 4.27914 19.3148 4.02745 19.3148V15.3148C3.64398 15.3148 3.33542 15.406 3.13813 15.4801L4.54539 19.2244ZM4.02745 19.3148H5.57212V15.3148H4.02745V19.3148ZM5.57212 19.3148C6.75185 19.3148 7.89667 18.8409 8.731 18.006L5.90157 15.1786C5.81804 15.2621 5.69132 15.3148 5.57212 15.3148V19.3148ZM8.7305 18.0065L12.3434 14.3936L9.51494 11.5652L5.90207 15.1781L8.7305 18.0065ZM12.3428 14.3942C12.2545 14.4824 12.1747 14.49 12.1512 14.49C12.1277 14.49 12.047 14.4823 11.958 14.3932L14.7878 11.5662C13.3536 10.1305 10.9488 10.1325 9.51553 11.5646L12.3428 14.3942ZM11.9588 14.3939L15.5584 17.9933L18.3867 15.1648L14.7871 11.5654L11.9588 14.3939ZM15.5578 17.9928C16.392 18.8276 17.5367 19.3018 18.7167 19.3018V15.3018C18.5977 15.3018 18.4709 15.2491 18.3873 15.1654L15.5578 17.9928ZM18.7167 19.3018H19.9729V15.3018H18.7167V19.3018ZM19.9729 19.3018C19.7476 19.3018 19.5607 19.2521 19.425 19.1977L20.9134 15.485C20.656 15.3818 20.3373 15.3018 19.9729 15.3018V19.3018ZM21.5834 18.7556L24.3464 15.9926L21.5179 13.1642L18.755 15.9271L21.5834 18.7556ZM24.3464 15.9926C26.5512 13.7876 26.5512 10.2129 24.3464 8.00798L21.5179 10.8363C22.1607 11.4792 22.1607 12.5214 21.5179 13.1642L24.3464 15.9926Z" fill="white" mask="url(#path-1-inside-1_49_1872)"/>
</svg>
