<svg width="251" height="250" viewBox="0 0 251 250" fill="none" xmlns="http://www.w3.org/2000/svg">
<path d="M0.461182 0H10.4612V10H0.461182V0ZM10.4612 0H20.4612V10H10.4612V0ZM20.4612 0H30.4612V10H20.4612V0ZM30.4612 0H40.4612V10H30.4612V0ZM40.4612 0H50.4612V10H40.4612V0ZM50.4612 0H60.4612V10H50.4612V0ZM60.4612 0H70.4612V10H60.4612V0ZM90.4612 0H100.461V10H90.4612V0ZM130.461 0H140.461V10H130.461V0ZM180.461 0H190.461V10H180.461V0ZM190.461 0H200.461V10H190.461V0ZM200.461 0H210.461V10H200.461V0ZM210.461 0H220.461V10H210.461V0ZM220.461 0H230.461V10H220.461V0ZM230.461 0H240.461V10H230.461V0ZM240.461 0H250.461V10H240.461V0ZM0.461182 10H10.4612V20H0.461182V10ZM60.4612 10H70.4612V20H60.4612V10ZM80.4612 10H90.4612V20H80.4612V10ZM90.4612 10H100.461V20H90.4612V10ZM110.461 10H120.461V20H110.461V10ZM120.461 10H130.461V20H120.461V10ZM130.461 10H140.461V20H130.461V10ZM140.461 10H150.461V20H140.461V10ZM150.461 10H160.461V20H150.461V10ZM180.461 10H190.461V20H180.461V10ZM240.461 10H250.461V20H240.461V10ZM0.461182 20H10.4612V30H0.461182V20ZM20.4612 20H30.4612V30H20.4612V20ZM30.4612 20H40.4612V30H30.4612V20ZM40.4612 20H50.4612V30H40.4612V20ZM60.4612 20H70.4612V30H60.4612V20ZM90.4612 20H100.461V30H90.4612V20ZM100.461 20H110.461V30H100.461V20ZM110.461 20H120.461V30H110.461V20ZM140.461 20H150.461V30H140.461V20ZM180.461 20H190.461V30H180.461V20ZM200.461 20H210.461V30H200.461V20ZM210.461 20H220.461V30H210.461V20ZM220.461 20H230.461V30H220.461V20ZM240.461 20H250.461V30H240.461V20ZM0.461182 30H10.4612V40H0.461182V30ZM20.4612 30H30.4612V40H20.4612V30ZM30.4612 30H40.4612V40H30.4612V30ZM40.4612 30H50.4612V40H40.4612V30ZM60.4612 30H70.4612V40H60.4612V30ZM80.4612 30H90.4612V40H80.4612V30ZM90.4612 30H100.461V40H90.4612V30ZM110.461 30H120.461V40H110.461V30ZM130.461 30H140.461V40H130.461V30ZM140.461 30H150.461V40H140.461V30ZM150.461 30H160.461V40H150.461V30ZM160.461 30H170.461V40H160.461V30ZM180.461 30H190.461V40H180.461V30ZM200.461 30H210.461V40H200.461V30ZM210.461 30H220.461V40H210.461V30ZM220.461 30H230.461V40H220.461V30ZM240.461 30H250.461V40H240.461V30ZM0.461182 40H10.4612V50H0.461182V40ZM20.4612 40H30.4612V50H20.4612V40ZM30.4612 40H40.4612V50H30.4612V40ZM40.4612 40H50.4612V50H40.4612V40ZM60.4612 40H70.4612V50H60.4612V40ZM100.461 40H110.461V50H100.461V40ZM120.461 40H130.461V50H120.461V40ZM160.461 40H170.461V50H160.461V40ZM180.461 40H190.461V50H180.461V40ZM200.461 40H210.461V50H200.461V40ZM210.461 40H220.461V50H210.461V40ZM220.461 40H230.461V50H220.461V40ZM240.461 40H250.461V50H240.461V40ZM0.461182 50H10.4612V60H0.461182V50ZM60.4612 50H70.4612V60H60.4612V50ZM80.4612 50H90.4612V60H80.4612V50ZM100.461 50H110.461V60H100.461V50ZM140.461 50H150.461V60H140.461V50ZM150.461 50H160.461V60H150.461V50ZM180.461 50H190.461V60H180.461V50ZM240.461 50H250.461V60H240.461V50ZM0.461182 60H10.4612V70H0.461182V60ZM10.4612 60H20.4612V70H10.4612V60ZM20.4612 60H30.4612V70H20.4612V60ZM30.4612 60H40.4612V70H30.4612V60ZM40.4612 60H50.4612V70H40.4612V60ZM50.4612 60H60.4612V70H50.4612V60ZM60.4612 60H70.4612V70H60.4612V60ZM80.4612 60H90.4612V70H80.4612V60ZM100.461 60H110.461V70H100.461V60ZM120.461 60H130.461V70H120.461V60ZM140.461 60H150.461V70H140.461V60ZM160.461 60H170.461V70H160.461V60ZM180.461 60H190.461V70H180.461V60ZM190.461 60H200.461V70H190.461V60ZM200.461 60H210.461V70H200.461V60ZM210.461 60H220.461V70H210.461V60ZM220.461 60H230.461V70H220.461V60ZM230.461 60H240.461V70H230.461V60ZM240.461 60H250.461V70H240.461V60ZM120.461 70H130.461V80H120.461V70ZM140.461 70H150.461V80H140.461V70ZM0.461182 80H10.4612V90H0.461182V80ZM10.4612 80H20.4612V90H10.4612V80ZM20.4612 80H30.4612V90H20.4612V80ZM30.4612 80H40.4612V90H30.4612V80ZM40.4612 80H50.4612V90H40.4612V80ZM60.4612 80H70.4612V90H60.4612V80ZM70.4612 80H80.4612V90H70.4612V80ZM80.4612 80H90.4612V90H80.4612V80ZM90.4612 80H100.461V90H90.4612V80ZM100.461 80H110.461V90H100.461V80ZM120.461 80H130.461V90H120.461V80ZM130.461 80H140.461V90H130.461V80ZM140.461 80H150.461V90H140.461V80ZM150.461 80H160.461V90H150.461V80ZM170.461 80H180.461V90H170.461V80ZM190.461 80H200.461V90H190.461V80ZM210.461 80H220.461V90H210.461V80ZM230.461 80H240.461V90H230.461V80ZM30.4612 90H40.4612V100H30.4612V90ZM40.4612 90H50.4612V100H40.4612V90ZM50.4612 90H60.4612V100H50.4612V90ZM70.4612 90H80.4612V100H70.4612V90ZM90.4612 90H100.461V100H90.4612V90ZM130.461 90H140.461V100H130.461V90ZM140.461 90H150.461V100H140.461V90ZM160.461 90H170.461V100H160.461V90ZM170.461 90H180.461V100H170.461V90ZM190.461 90H200.461V100H190.461V90ZM210.461 90H220.461V100H210.461V90ZM40.4612 100H50.4612V110H40.4612V100ZM50.4612 100H60.4612V110H50.4612V100ZM60.4612 100H70.4612V110H60.4612V100ZM80.4612 100H90.4612V110H80.4612V100ZM90.4612 100H100.461V110H90.4612V100ZM110.461 100H120.461V110H110.461V100ZM120.461 100H130.461V110H120.461V100ZM150.461 100H160.461V110H150.461V100ZM170.461 100H180.461V110H170.461V100ZM180.461 100H190.461V110H180.461V100ZM190.461 100H200.461V110H190.461V100ZM220.461 100H230.461V110H220.461V100ZM230.461 100H240.461V110H230.461V100ZM240.461 100H250.461V110H240.461V100ZM0.461182 110H10.4612V120H0.461182V110ZM10.4612 110H20.4612V120H10.4612V110ZM20.4612 110H30.4612V120H20.4612V110ZM50.4612 110H60.4612V120H50.4612V110ZM90.4612 110H100.461V120H90.4612V110ZM100.461 110H110.461V120H100.461V110ZM110.461 110H120.461V120H110.461V110ZM160.461 110H170.461V120H160.461V110ZM180.461 110H190.461V120H180.461V110ZM230.461 110H240.461V120H230.461V110ZM10.4612 120H20.4612V130H10.4612V120ZM40.4612 120H50.4612V130H40.4612V120ZM60.4612 120H70.4612V130H60.4612V120ZM70.4612 120H80.4612V130H70.4612V120ZM90.4612 120H100.461V130H90.4612V120ZM110.461 120H120.461V130H110.461V120ZM120.461 120H130.461V130H120.461V120ZM130.461 120H140.461V130H130.461V120ZM140.461 120H150.461V130H140.461V120ZM180.461 120H190.461V130H180.461V120ZM200.461 120H210.461V130H200.461V120ZM210.461 120H220.461V130H210.461V120ZM220.461 120H230.461V130H220.461V120ZM230.461 120H240.461V130H230.461V120ZM0.461182 130H10.4612V140H0.461182V130ZM10.4612 130H20.4612V140H10.4612V130ZM40.4612 130H50.4612V140H40.4612V130ZM70.4612 130H80.4612V140H70.4612V130ZM90.4612 130H100.461V140H90.4612V130ZM100.461 130H110.461V140H100.461V130ZM120.461 130H130.461V140H120.461V130ZM140.461 130H150.461V140H140.461V130ZM190.461 130H200.461V140H190.461V130ZM210.461 130H220.461V140H210.461V130ZM220.461 130H230.461V140H220.461V130ZM0.461182 140H10.4612V150H0.461182V140ZM20.4612 140H30.4612V150H20.4612V140ZM50.4612 140H60.4612V150H50.4612V140ZM60.4612 140H70.4612V150H60.4612V140ZM70.4612 140H80.4612V150H70.4612V140ZM80.4612 140H90.4612V150H80.4612V140ZM90.4612 140H100.461V150H90.4612V140ZM100.461 140H110.461V150H100.461V140ZM120.461 140H130.461V150H120.461V140ZM150.461 140H160.461V150H150.461V140ZM160.461 140H170.461V150H160.461V140ZM170.461 140H180.461V150H170.461V140ZM190.461 140H200.461V150H190.461V140ZM220.461 140H230.461V150H220.461V140ZM230.461 140H240.461V150H230.461V140ZM240.461 140H250.461V150H240.461V140ZM0.461182 150H10.4612V160H0.461182V150ZM40.4612 150H50.4612V160H40.4612V150ZM80.4612 150H90.4612V160H80.4612V150ZM90.4612 150H100.461V160H90.4612V150ZM100.461 150H110.461V160H100.461V150ZM110.461 150H120.461V160H110.461V150ZM120.461 150H130.461V160H120.461V150ZM150.461 150H160.461V160H150.461V150ZM160.461 150H170.461V160H160.461V150ZM190.461 150H200.461V160H190.461V150ZM0.461182 160H10.4612V170H0.461182V160ZM40.4612 160H50.4612V170H40.4612V160ZM50.4612 160H60.4612V170H50.4612V160ZM60.4612 160H70.4612V170H60.4612V160ZM70.4612 160H80.4612V170H70.4612V160ZM100.461 160H110.461V170H100.461V160ZM130.461 160H140.461V170H130.461V160ZM140.461 160H150.461V170H140.461V160ZM160.461 160H170.461V170H160.461V160ZM170.461 160H180.461V170H170.461V160ZM180.461 160H190.461V170H180.461V160ZM190.461 160H200.461V170H190.461V160ZM200.461 160H210.461V170H200.461V160ZM210.461 160H220.461V170H210.461V160ZM220.461 160H230.461V170H220.461V160ZM240.461 160H250.461V170H240.461V160ZM80.4612 170H90.4612V180H80.4612V170ZM90.4612 170H100.461V180H90.4612V170ZM100.461 170H110.461V180H100.461V170ZM110.461 170H120.461V180H110.461V170ZM130.461 170H140.461V180H130.461V170ZM150.461 170H160.461V180H150.461V170ZM160.461 170H170.461V180H160.461V170ZM200.461 170H210.461V180H200.461V170ZM230.461 170H240.461V180H230.461V170ZM0.461182 180H10.4612V190H0.461182V180ZM10.4612 180H20.4612V190H10.4612V180ZM20.4612 180H30.4612V190H20.4612V180ZM30.4612 180H40.4612V190H30.4612V180ZM40.4612 180H50.4612V190H40.4612V180ZM50.4612 180H60.4612V190H50.4612V180ZM60.4612 180H70.4612V190H60.4612V180ZM80.4612 180H90.4612V190H80.4612V180ZM90.4612 180H100.461V190H90.4612V180ZM140.461 180H150.461V190H140.461V180ZM160.461 180H170.461V190H160.461V180ZM180.461 180H190.461V190H180.461V180ZM200.461 180H210.461V190H200.461V180ZM230.461 180H240.461V190H230.461V180ZM240.461 180H250.461V190H240.461V180ZM0.461182 190H10.4612V200H0.461182V190ZM60.4612 190H70.4612V200H60.4612V190ZM90.4612 190H100.461V200H90.4612V190ZM160.461 190H170.461V200H160.461V190ZM200.461 190H210.461V200H200.461V190ZM0.461182 200H10.4612V210H0.461182V200ZM20.4612 200H30.4612V210H20.4612V200ZM30.4612 200H40.4612V210H30.4612V200ZM40.4612 200H50.4612V210H40.4612V200ZM60.4612 200H70.4612V210H60.4612V200ZM80.4612 200H90.4612V210H80.4612V200ZM100.461 200H110.461V210H100.461V200ZM120.461 200H130.461V210H120.461V200ZM130.461 200H140.461V210H130.461V200ZM140.461 200H150.461V210H140.461V200ZM150.461 200H160.461V210H150.461V200ZM160.461 200H170.461V210H160.461V200ZM170.461 200H180.461V210H170.461V200ZM180.461 200H190.461V210H180.461V200ZM190.461 200H200.461V210H190.461V200ZM200.461 200H210.461V210H200.461V200ZM220.461 200H230.461V210H220.461V200ZM0.461182 210H10.4612V220H0.461182V210ZM20.4612 210H30.4612V220H20.4612V210ZM30.4612 210H40.4612V220H30.4612V210ZM40.4612 210H50.4612V220H40.4612V210ZM60.4612 210H70.4612V220H60.4612V210ZM80.4612 210H90.4612V220H80.4612V210ZM110.461 210H120.461V220H110.461V210ZM130.461 210H140.461V220H130.461V210ZM160.461 210H170.461V220H160.461V210ZM170.461 210H180.461V220H170.461V210ZM180.461 210H190.461V220H180.461V210ZM200.461 210H210.461V220H200.461V210ZM230.461 210H240.461V220H230.461V210ZM240.461 210H250.461V220H240.461V210ZM0.461182 220H10.4612V230H0.461182V220ZM20.4612 220H30.4612V230H20.4612V220ZM30.4612 220H40.4612V230H30.4612V220ZM40.4612 220H50.4612V230H40.4612V220ZM60.4612 220H70.4612V230H60.4612V220ZM80.4612 220H90.4612V230H80.4612V220ZM90.4612 220H100.461V230H90.4612V220ZM120.461 220H130.461V230H120.461V220ZM130.461 220H140.461V230H130.461V220ZM140.461 220H150.461V230H140.461V220ZM160.461 220H170.461V230H160.461V220ZM190.461 220H200.461V230H190.461V220ZM210.461 220H220.461V230H210.461V220ZM240.461 220H250.461V230H240.461V220ZM0.461182 230H10.4612V240H0.461182V230ZM60.4612 230H70.4612V240H60.4612V230ZM80.4612 230H90.4612V240H80.4612V230ZM90.4612 230H100.461V240H90.4612V230ZM110.461 230H120.461V240H110.461V230ZM120.461 230H130.461V240H120.461V230ZM140.461 230H150.461V240H140.461V230ZM150.461 230H160.461V240H150.461V230ZM160.461 230H170.461V240H160.461V230ZM180.461 230H190.461V240H180.461V230ZM190.461 230H200.461V240H190.461V230ZM200.461 230H210.461V240H200.461V230ZM240.461 230H250.461V240H240.461V230ZM0.461182 240H10.4612V250H0.461182V240ZM10.4612 240H20.4612V250H10.4612V240ZM20.4612 240H30.4612V250H20.4612V240ZM30.4612 240H40.4612V250H30.4612V240ZM40.4612 240H50.4612V250H40.4612V240ZM50.4612 240H60.4612V250H50.4612V240ZM60.4612 240H70.4612V250H60.4612V240ZM80.4612 240H90.4612V250H80.4612V240ZM100.461 240H110.461V250H100.461V240ZM130.461 240H140.461V250H130.461V240ZM140.461 240H150.461V250H140.461V240ZM170.461 240H180.461V250H170.461V240ZM220.461 240H230.461V250H220.461V240ZM230.461 240H240.461V250H230.461V240ZM240.461 240H250.461V250H240.461V240Z" fill="#76797B"/>
</svg>
