<svg width="355" height="193" viewBox="0 0 355 193" fill="none" xmlns="http://www.w3.org/2000/svg">
<g opacity="0.4">
<path fill-rule="evenodd" clip-rule="evenodd" d="M174.539 20C150.239 20 130.539 39.6995 130.539 64C130.539 88.3005 150.239 108 174.539 108C198.84 108 218.539 88.3005 218.539 64C218.539 39.6995 198.84 20 174.539 20ZM122.539 64C122.539 35.2812 145.82 12 174.539 12C203.258 12 226.539 35.2812 226.539 64C226.539 92.7188 203.258 116 174.539 116C145.82 116 122.539 92.7188 122.539 64ZM174.539 32C176.748 32 178.539 33.7909 178.539 36V60H202.539C204.748 60 206.539 61.7909 206.539 64C206.539 66.2091 204.748 68 202.539 68H174.539C172.33 68 170.539 66.2091 170.539 64V36C170.539 33.7909 172.33 32 174.539 32Z" fill="white"/>
<path d="M9 172.855L4.35938 187H0.621094L6.96094 169.938H9.33984L9 172.855ZM12.8555 187L8.20312 172.855L7.82812 169.938H10.2305L16.6055 187H12.8555ZM12.6445 180.648V183.402H3.63281V180.648H12.6445ZM26.0039 174.32H29.0625V186.578C29.0625 187.734 28.8047 188.715 28.2891 189.52C27.7812 190.332 27.0703 190.945 26.1562 191.359C25.2422 191.781 24.1797 191.992 22.9688 191.992C22.4375 191.992 21.875 191.922 21.2812 191.781C20.6953 191.641 20.1328 191.422 19.5938 191.125C19.0625 190.828 18.6172 190.453 18.2578 190L19.7461 188.008C20.1367 188.461 20.5898 188.812 21.1055 189.062C21.6211 189.32 22.1914 189.449 22.8164 189.449C23.4258 189.449 23.9414 189.336 24.3633 189.109C24.7852 188.891 25.1094 188.566 25.3359 188.137C25.5625 187.715 25.6758 187.203 25.6758 186.602V177.25L26.0039 174.32ZM17.4727 180.812V180.566C17.4727 179.598 17.5898 178.719 17.8242 177.93C18.0664 177.133 18.4062 176.449 18.8438 175.879C19.2891 175.309 19.8281 174.867 20.4609 174.555C21.0938 174.242 21.8086 174.086 22.6055 174.086C23.4492 174.086 24.1562 174.242 24.7266 174.555C25.2969 174.867 25.7656 175.312 26.1328 175.891C26.5 176.461 26.7852 177.137 26.9883 177.918C27.1992 178.691 27.3633 179.539 27.4805 180.461V181C27.3633 181.883 27.1875 182.703 26.9531 183.461C26.7188 184.219 26.4102 184.883 26.0273 185.453C25.6445 186.016 25.168 186.453 24.5977 186.766C24.0352 187.078 23.3633 187.234 22.582 187.234C21.8008 187.234 21.0938 187.074 20.4609 186.754C19.8359 186.434 19.3008 185.984 18.8555 185.406C18.4102 184.828 18.0664 184.148 17.8242 183.367C17.5898 182.586 17.4727 181.734 17.4727 180.812ZM20.8477 180.566V180.812C20.8477 181.336 20.8984 181.824 21 182.277C21.1016 182.73 21.2578 183.133 21.4688 183.484C21.6875 183.828 21.957 184.098 22.2773 184.293C22.6055 184.48 22.9922 184.574 23.4375 184.574C24.0547 184.574 24.5586 184.445 24.9492 184.188C25.3398 183.922 25.6328 183.559 25.8281 183.098C26.0234 182.637 26.1367 182.105 26.168 181.504V179.969C26.1523 179.477 26.0859 179.035 25.9688 178.645C25.8516 178.246 25.6875 177.906 25.4766 177.625C25.2656 177.344 24.9922 177.125 24.6562 176.969C24.3203 176.812 23.9219 176.734 23.4609 176.734C23.0156 176.734 22.6289 176.836 22.3008 177.039C21.9805 177.234 21.7109 177.504 21.4922 177.848C21.2812 178.191 21.1211 178.598 21.0117 179.066C20.9023 179.527 20.8477 180.027 20.8477 180.566ZM39.1875 183.965V174.32H42.5625V187H39.3867L39.1875 183.965ZM39.5625 181.363L40.5586 181.34C40.5586 182.184 40.4609 182.969 40.2656 183.695C40.0703 184.414 39.7773 185.039 39.3867 185.57C38.9961 186.094 38.5039 186.504 37.9102 186.801C37.3164 187.09 36.6172 187.234 35.8125 187.234C35.1953 187.234 34.625 187.148 34.1016 186.977C33.5859 186.797 33.1406 186.52 32.7656 186.145C32.3984 185.762 32.1094 185.273 31.8984 184.68C31.6953 184.078 31.5938 183.355 31.5938 182.512V174.32H34.9688V182.535C34.9688 182.91 35.0117 183.227 35.0977 183.484C35.1914 183.742 35.3203 183.953 35.4844 184.117C35.6484 184.281 35.8398 184.398 36.0586 184.469C36.2852 184.539 36.5352 184.574 36.8086 184.574C37.5039 184.574 38.0508 184.434 38.4492 184.152C38.8555 183.871 39.1406 183.488 39.3047 183.004C39.4766 182.512 39.5625 181.965 39.5625 181.363ZM51.9844 184.141V178.492C51.9844 178.086 51.918 177.738 51.7852 177.449C51.6523 177.152 51.4453 176.922 51.1641 176.758C50.8906 176.594 50.5352 176.512 50.0977 176.512C49.7227 176.512 49.3984 176.578 49.125 176.711C48.8516 176.836 48.6406 177.02 48.4922 177.262C48.3438 177.496 48.2695 177.773 48.2695 178.094H44.8945C44.8945 177.555 45.0195 177.043 45.2695 176.559C45.5195 176.074 45.8828 175.648 46.3594 175.281C46.8359 174.906 47.4023 174.613 48.0586 174.402C48.7227 174.191 49.4648 174.086 50.2852 174.086C51.2695 174.086 52.1445 174.25 52.9102 174.578C53.6758 174.906 54.2773 175.398 54.7148 176.055C55.1602 176.711 55.3828 177.531 55.3828 178.516V183.941C55.3828 184.637 55.4258 185.207 55.5117 185.652C55.5977 186.09 55.7227 186.473 55.8867 186.801V187H52.4766C52.3125 186.656 52.1875 186.227 52.1016 185.711C52.0234 185.188 51.9844 184.664 51.9844 184.141ZM52.4297 179.277L52.4531 181.188H50.5664C50.1211 181.188 49.7344 181.238 49.4062 181.34C49.0781 181.441 48.8086 181.586 48.5977 181.773C48.3867 181.953 48.2305 182.164 48.1289 182.406C48.0352 182.648 47.9883 182.914 47.9883 183.203C47.9883 183.492 48.0547 183.754 48.1875 183.988C48.3203 184.215 48.5117 184.395 48.7617 184.527C49.0117 184.652 49.3047 184.715 49.6406 184.715C50.1484 184.715 50.5898 184.613 50.9648 184.41C51.3398 184.207 51.6289 183.957 51.832 183.66C52.043 183.363 52.1523 183.082 52.1602 182.816L53.0508 184.246C52.9258 184.566 52.7539 184.898 52.5352 185.242C52.3242 185.586 52.0547 185.91 51.7266 186.215C51.3984 186.512 51.0039 186.758 50.543 186.953C50.082 187.141 49.5352 187.234 48.9023 187.234C48.0977 187.234 47.3672 187.074 46.7109 186.754C46.0625 186.426 45.5469 185.977 45.1641 185.406C44.7891 184.828 44.6016 184.172 44.6016 183.438C44.6016 182.773 44.7266 182.184 44.9766 181.668C45.2266 181.152 45.5938 180.719 46.0781 180.367C46.5703 180.008 47.1836 179.738 47.918 179.559C48.6523 179.371 49.5039 179.277 50.4727 179.277H52.4297ZM61.3594 177.086V187H57.9844V174.32H61.1602L61.3594 177.086ZM65.1797 174.238L65.1211 177.367C64.957 177.344 64.7578 177.324 64.5234 177.309C64.2969 177.285 64.0898 177.273 63.9023 177.273C63.4258 177.273 63.0117 177.336 62.6602 177.461C62.3164 177.578 62.0273 177.754 61.793 177.988C61.5664 178.223 61.3945 178.508 61.2773 178.844C61.168 179.18 61.1055 179.562 61.0898 179.992L60.4102 179.781C60.4102 178.961 60.4922 178.207 60.6562 177.52C60.8203 176.824 61.0586 176.219 61.3711 175.703C61.6914 175.188 62.082 174.789 62.543 174.508C63.0039 174.227 63.5312 174.086 64.125 174.086C64.3125 174.086 64.5039 174.102 64.6992 174.133C64.8945 174.156 65.0547 174.191 65.1797 174.238ZM74.0273 184.234V169H77.4258V187H74.3672L74.0273 184.234ZM66.0117 180.812V180.566C66.0117 179.598 66.1211 178.719 66.3398 177.93C66.5586 177.133 66.8789 176.449 67.3008 175.879C67.7227 175.309 68.2422 174.867 68.8594 174.555C69.4766 174.242 70.1797 174.086 70.9688 174.086C71.7109 174.086 72.3594 174.242 72.9141 174.555C73.4766 174.867 73.9531 175.312 74.3438 175.891C74.7422 176.461 75.0625 177.137 75.3047 177.918C75.5469 178.691 75.7227 179.539 75.832 180.461V181C75.7227 181.883 75.5469 182.703 75.3047 183.461C75.0625 184.219 74.7422 184.883 74.3438 185.453C73.9531 186.016 73.4766 186.453 72.9141 186.766C72.3516 187.078 71.6953 187.234 70.9453 187.234C70.1562 187.234 69.4531 187.074 68.8359 186.754C68.2266 186.434 67.7109 185.984 67.2891 185.406C66.875 184.828 66.5586 184.148 66.3398 183.367C66.1211 182.586 66.0117 181.734 66.0117 180.812ZM69.3867 180.566V180.812C69.3867 181.336 69.4258 181.824 69.5039 182.277C69.5898 182.73 69.7266 183.133 69.9141 183.484C70.1094 183.828 70.3594 184.098 70.6641 184.293C70.9766 184.48 71.3555 184.574 71.8008 184.574C72.3789 184.574 72.8555 184.445 73.2305 184.188C73.6055 183.922 73.8906 183.559 74.0859 183.098C74.2891 182.637 74.4062 182.105 74.4375 181.504V179.969C74.4141 179.477 74.3438 179.035 74.2266 178.645C74.1172 178.246 73.9531 177.906 73.7344 177.625C73.5234 177.344 73.2578 177.125 72.9375 176.969C72.625 176.812 72.2539 176.734 71.8242 176.734C71.3867 176.734 71.0117 176.836 70.6992 177.039C70.3867 177.234 70.1328 177.504 69.9375 177.848C69.75 178.191 69.6094 178.598 69.5156 179.066C69.4297 179.527 69.3867 180.027 69.3867 180.566ZM86.9062 184.141V178.492C86.9062 178.086 86.8398 177.738 86.707 177.449C86.5742 177.152 86.3672 176.922 86.0859 176.758C85.8125 176.594 85.457 176.512 85.0195 176.512C84.6445 176.512 84.3203 176.578 84.0469 176.711C83.7734 176.836 83.5625 177.02 83.4141 177.262C83.2656 177.496 83.1914 177.773 83.1914 178.094H79.8164C79.8164 177.555 79.9414 177.043 80.1914 176.559C80.4414 176.074 80.8047 175.648 81.2812 175.281C81.7578 174.906 82.3242 174.613 82.9805 174.402C83.6445 174.191 84.3867 174.086 85.207 174.086C86.1914 174.086 87.0664 174.25 87.832 174.578C88.5977 174.906 89.1992 175.398 89.6367 176.055C90.082 176.711 90.3047 177.531 90.3047 178.516V183.941C90.3047 184.637 90.3477 185.207 90.4336 185.652C90.5195 186.09 90.6445 186.473 90.8086 186.801V187H87.3984C87.2344 186.656 87.1094 186.227 87.0234 185.711C86.9453 185.188 86.9062 184.664 86.9062 184.141ZM87.3516 179.277L87.375 181.188H85.4883C85.043 181.188 84.6562 181.238 84.3281 181.34C84 181.441 83.7305 181.586 83.5195 181.773C83.3086 181.953 83.1523 182.164 83.0508 182.406C82.957 182.648 82.9102 182.914 82.9102 183.203C82.9102 183.492 82.9766 183.754 83.1094 183.988C83.2422 184.215 83.4336 184.395 83.6836 184.527C83.9336 184.652 84.2266 184.715 84.5625 184.715C85.0703 184.715 85.5117 184.613 85.8867 184.41C86.2617 184.207 86.5508 183.957 86.7539 183.66C86.9648 183.363 87.0742 183.082 87.082 182.816L87.9727 184.246C87.8477 184.566 87.6758 184.898 87.457 185.242C87.2461 185.586 86.9766 185.91 86.6484 186.215C86.3203 186.512 85.9258 186.758 85.4648 186.953C85.0039 187.141 84.457 187.234 83.8242 187.234C83.0195 187.234 82.2891 187.074 81.6328 186.754C80.9844 186.426 80.4688 185.977 80.0859 185.406C79.7109 184.828 79.5234 184.172 79.5234 183.438C79.5234 182.773 79.6484 182.184 79.8984 181.668C80.1484 181.152 80.5156 180.719 81 180.367C81.4922 180.008 82.1055 179.738 82.8398 179.559C83.5742 179.371 84.4258 179.277 85.3945 179.277H87.3516ZM96.2109 177.027V187H92.8359V174.32H96L96.2109 177.027ZM95.7188 180.215H94.8047C94.8047 179.277 94.9258 178.434 95.168 177.684C95.4102 176.926 95.75 176.281 96.1875 175.75C96.625 175.211 97.1445 174.801 97.7461 174.52C98.3555 174.23 99.0352 174.086 99.7852 174.086C100.379 174.086 100.922 174.172 101.414 174.344C101.906 174.516 102.328 174.789 102.68 175.164C103.039 175.539 103.312 176.035 103.5 176.652C103.695 177.27 103.793 178.023 103.793 178.914V187H100.395V178.902C100.395 178.34 100.316 177.902 100.16 177.59C100.004 177.277 99.7734 177.059 99.4688 176.934C99.1719 176.801 98.8047 176.734 98.3672 176.734C97.9141 176.734 97.5195 176.824 97.1836 177.004C96.8555 177.184 96.582 177.434 96.3633 177.754C96.1523 178.066 95.9922 178.434 95.8828 178.855C95.7734 179.277 95.7188 179.73 95.7188 180.215ZM113.848 184.234V169H117.246V187H114.188L113.848 184.234ZM105.832 180.812V180.566C105.832 179.598 105.941 178.719 106.16 177.93C106.379 177.133 106.699 176.449 107.121 175.879C107.543 175.309 108.062 174.867 108.68 174.555C109.297 174.242 110 174.086 110.789 174.086C111.531 174.086 112.18 174.242 112.734 174.555C113.297 174.867 113.773 175.312 114.164 175.891C114.562 176.461 114.883 177.137 115.125 177.918C115.367 178.691 115.543 179.539 115.652 180.461V181C115.543 181.883 115.367 182.703 115.125 183.461C114.883 184.219 114.562 184.883 114.164 185.453C113.773 186.016 113.297 186.453 112.734 186.766C112.172 187.078 111.516 187.234 110.766 187.234C109.977 187.234 109.273 187.074 108.656 186.754C108.047 186.434 107.531 185.984 107.109 185.406C106.695 184.828 106.379 184.148 106.16 183.367C105.941 182.586 105.832 181.734 105.832 180.812ZM109.207 180.566V180.812C109.207 181.336 109.246 181.824 109.324 182.277C109.41 182.73 109.547 183.133 109.734 183.484C109.93 183.828 110.18 184.098 110.484 184.293C110.797 184.48 111.176 184.574 111.621 184.574C112.199 184.574 112.676 184.445 113.051 184.188C113.426 183.922 113.711 183.559 113.906 183.098C114.109 182.637 114.227 182.105 114.258 181.504V179.969C114.234 179.477 114.164 179.035 114.047 178.645C113.938 178.246 113.773 177.906 113.555 177.625C113.344 177.344 113.078 177.125 112.758 176.969C112.445 176.812 112.074 176.734 111.645 176.734C111.207 176.734 110.832 176.836 110.52 177.039C110.207 177.234 109.953 177.504 109.758 177.848C109.57 178.191 109.43 178.598 109.336 179.066C109.25 179.527 109.207 180.027 109.207 180.566ZM119.344 180.789V180.543C119.344 179.613 119.477 178.758 119.742 177.977C120.008 177.188 120.395 176.504 120.902 175.926C121.41 175.348 122.035 174.898 122.777 174.578C123.52 174.25 124.371 174.086 125.332 174.086C126.293 174.086 127.148 174.25 127.898 174.578C128.648 174.898 129.277 175.348 129.785 175.926C130.301 176.504 130.691 177.188 130.957 177.977C131.223 178.758 131.355 179.613 131.355 180.543V180.789C131.355 181.711 131.223 182.566 130.957 183.355C130.691 184.137 130.301 184.82 129.785 185.406C129.277 185.984 128.652 186.434 127.91 186.754C127.168 187.074 126.316 187.234 125.355 187.234C124.395 187.234 123.539 187.074 122.789 186.754C122.047 186.434 121.418 185.984 120.902 185.406C120.395 184.82 120.008 184.137 119.742 183.355C119.477 182.566 119.344 181.711 119.344 180.789ZM122.719 180.543V180.789C122.719 181.32 122.766 181.816 122.859 182.277C122.953 182.738 123.102 183.145 123.305 183.496C123.516 183.84 123.789 184.109 124.125 184.305C124.461 184.5 124.871 184.598 125.355 184.598C125.824 184.598 126.227 184.5 126.562 184.305C126.898 184.109 127.168 183.84 127.371 183.496C127.574 183.145 127.723 182.738 127.816 182.277C127.918 181.816 127.969 181.32 127.969 180.789V180.543C127.969 180.027 127.918 179.543 127.816 179.09C127.723 178.629 127.57 178.223 127.359 177.871C127.156 177.512 126.887 177.23 126.551 177.027C126.215 176.824 125.809 176.723 125.332 176.723C124.855 176.723 124.449 176.824 124.113 177.027C123.785 177.23 123.516 177.512 123.305 177.871C123.102 178.223 122.953 178.629 122.859 179.09C122.766 179.543 122.719 180.027 122.719 180.543ZM142.781 176.758V191.875H139.406V174.32H142.535L142.781 176.758ZM150.809 180.52V180.766C150.809 181.688 150.699 182.543 150.48 183.332C150.27 184.121 149.957 184.809 149.543 185.395C149.129 185.973 148.613 186.426 147.996 186.754C147.387 187.074 146.684 187.234 145.887 187.234C145.113 187.234 144.441 187.078 143.871 186.766C143.301 186.453 142.82 186.016 142.43 185.453C142.047 184.883 141.738 184.223 141.504 183.473C141.27 182.723 141.09 181.918 140.965 181.059V180.414C141.09 179.492 141.27 178.648 141.504 177.883C141.738 177.109 142.047 176.441 142.43 175.879C142.82 175.309 143.297 174.867 143.859 174.555C144.43 174.242 145.098 174.086 145.863 174.086C146.668 174.086 147.375 174.238 147.984 174.543C148.602 174.848 149.117 175.285 149.531 175.855C149.953 176.426 150.27 177.105 150.48 177.895C150.699 178.684 150.809 179.559 150.809 180.52ZM147.422 180.766V180.52C147.422 179.98 147.375 179.484 147.281 179.031C147.195 178.57 147.055 178.168 146.859 177.824C146.672 177.48 146.422 177.215 146.109 177.027C145.805 176.832 145.434 176.734 144.996 176.734C144.535 176.734 144.141 176.809 143.812 176.957C143.492 177.105 143.23 177.32 143.027 177.602C142.824 177.883 142.672 178.219 142.57 178.609C142.469 179 142.406 179.441 142.383 179.934V181.562C142.422 182.141 142.531 182.66 142.711 183.121C142.891 183.574 143.168 183.934 143.543 184.199C143.918 184.465 144.41 184.598 145.02 184.598C145.465 184.598 145.84 184.5 146.145 184.305C146.449 184.102 146.695 183.824 146.883 183.473C147.078 183.121 147.215 182.715 147.293 182.254C147.379 181.793 147.422 181.297 147.422 180.766ZM159.75 184.141V178.492C159.75 178.086 159.684 177.738 159.551 177.449C159.418 177.152 159.211 176.922 158.93 176.758C158.656 176.594 158.301 176.512 157.863 176.512C157.488 176.512 157.164 176.578 156.891 176.711C156.617 176.836 156.406 177.02 156.258 177.262C156.109 177.496 156.035 177.773 156.035 178.094H152.66C152.66 177.555 152.785 177.043 153.035 176.559C153.285 176.074 153.648 175.648 154.125 175.281C154.602 174.906 155.168 174.613 155.824 174.402C156.488 174.191 157.23 174.086 158.051 174.086C159.035 174.086 159.91 174.25 160.676 174.578C161.441 174.906 162.043 175.398 162.48 176.055C162.926 176.711 163.148 177.531 163.148 178.516V183.941C163.148 184.637 163.191 185.207 163.277 185.652C163.363 186.09 163.488 186.473 163.652 186.801V187H160.242C160.078 186.656 159.953 186.227 159.867 185.711C159.789 185.188 159.75 184.664 159.75 184.141ZM160.195 179.277L160.219 181.188H158.332C157.887 181.188 157.5 181.238 157.172 181.34C156.844 181.441 156.574 181.586 156.363 181.773C156.152 181.953 155.996 182.164 155.895 182.406C155.801 182.648 155.754 182.914 155.754 183.203C155.754 183.492 155.82 183.754 155.953 183.988C156.086 184.215 156.277 184.395 156.527 184.527C156.777 184.652 157.07 184.715 157.406 184.715C157.914 184.715 158.355 184.613 158.73 184.41C159.105 184.207 159.395 183.957 159.598 183.66C159.809 183.363 159.918 183.082 159.926 182.816L160.816 184.246C160.691 184.566 160.52 184.898 160.301 185.242C160.09 185.586 159.82 185.91 159.492 186.215C159.164 186.512 158.77 186.758 158.309 186.953C157.848 187.141 157.301 187.234 156.668 187.234C155.863 187.234 155.133 187.074 154.477 186.754C153.828 186.426 153.312 185.977 152.93 185.406C152.555 184.828 152.367 184.172 152.367 183.438C152.367 182.773 152.492 182.184 152.742 181.668C152.992 181.152 153.359 180.719 153.844 180.367C154.336 180.008 154.949 179.738 155.684 179.559C156.418 179.371 157.27 179.277 158.238 179.277H160.195ZM173.777 174.32H176.836V186.578C176.836 187.734 176.578 188.715 176.062 189.52C175.555 190.332 174.844 190.945 173.93 191.359C173.016 191.781 171.953 191.992 170.742 191.992C170.211 191.992 169.648 191.922 169.055 191.781C168.469 191.641 167.906 191.422 167.367 191.125C166.836 190.828 166.391 190.453 166.031 190L167.52 188.008C167.91 188.461 168.363 188.812 168.879 189.062C169.395 189.32 169.965 189.449 170.59 189.449C171.199 189.449 171.715 189.336 172.137 189.109C172.559 188.891 172.883 188.566 173.109 188.137C173.336 187.715 173.449 187.203 173.449 186.602V177.25L173.777 174.32ZM165.246 180.812V180.566C165.246 179.598 165.363 178.719 165.598 177.93C165.84 177.133 166.18 176.449 166.617 175.879C167.062 175.309 167.602 174.867 168.234 174.555C168.867 174.242 169.582 174.086 170.379 174.086C171.223 174.086 171.93 174.242 172.5 174.555C173.07 174.867 173.539 175.312 173.906 175.891C174.273 176.461 174.559 177.137 174.762 177.918C174.973 178.691 175.137 179.539 175.254 180.461V181C175.137 181.883 174.961 182.703 174.727 183.461C174.492 184.219 174.184 184.883 173.801 185.453C173.418 186.016 172.941 186.453 172.371 186.766C171.809 187.078 171.137 187.234 170.355 187.234C169.574 187.234 168.867 187.074 168.234 186.754C167.609 186.434 167.074 185.984 166.629 185.406C166.184 184.828 165.84 184.148 165.598 183.367C165.363 182.586 165.246 181.734 165.246 180.812ZM168.621 180.566V180.812C168.621 181.336 168.672 181.824 168.773 182.277C168.875 182.73 169.031 183.133 169.242 183.484C169.461 183.828 169.73 184.098 170.051 184.293C170.379 184.48 170.766 184.574 171.211 184.574C171.828 184.574 172.332 184.445 172.723 184.188C173.113 183.922 173.406 183.559 173.602 183.098C173.797 182.637 173.91 182.105 173.941 181.504V179.969C173.926 179.477 173.859 179.035 173.742 178.645C173.625 178.246 173.461 177.906 173.25 177.625C173.039 177.344 172.766 177.125 172.43 176.969C172.094 176.812 171.695 176.734 171.234 176.734C170.789 176.734 170.402 176.836 170.074 177.039C169.754 177.234 169.484 177.504 169.266 177.848C169.055 178.191 168.895 178.598 168.785 179.066C168.676 179.527 168.621 180.027 168.621 180.566ZM186.305 184.141V178.492C186.305 178.086 186.238 177.738 186.105 177.449C185.973 177.152 185.766 176.922 185.484 176.758C185.211 176.594 184.855 176.512 184.418 176.512C184.043 176.512 183.719 176.578 183.445 176.711C183.172 176.836 182.961 177.02 182.812 177.262C182.664 177.496 182.59 177.773 182.59 178.094H179.215C179.215 177.555 179.34 177.043 179.59 176.559C179.84 176.074 180.203 175.648 180.68 175.281C181.156 174.906 181.723 174.613 182.379 174.402C183.043 174.191 183.785 174.086 184.605 174.086C185.59 174.086 186.465 174.25 187.23 174.578C187.996 174.906 188.598 175.398 189.035 176.055C189.48 176.711 189.703 177.531 189.703 178.516V183.941C189.703 184.637 189.746 185.207 189.832 185.652C189.918 186.09 190.043 186.473 190.207 186.801V187H186.797C186.633 186.656 186.508 186.227 186.422 185.711C186.344 185.188 186.305 184.664 186.305 184.141ZM186.75 179.277L186.773 181.188H184.887C184.441 181.188 184.055 181.238 183.727 181.34C183.398 181.441 183.129 181.586 182.918 181.773C182.707 181.953 182.551 182.164 182.449 182.406C182.355 182.648 182.309 182.914 182.309 183.203C182.309 183.492 182.375 183.754 182.508 183.988C182.641 184.215 182.832 184.395 183.082 184.527C183.332 184.652 183.625 184.715 183.961 184.715C184.469 184.715 184.91 184.613 185.285 184.41C185.66 184.207 185.949 183.957 186.152 183.66C186.363 183.363 186.473 183.082 186.48 182.816L187.371 184.246C187.246 184.566 187.074 184.898 186.855 185.242C186.645 185.586 186.375 185.91 186.047 186.215C185.719 186.512 185.324 186.758 184.863 186.953C184.402 187.141 183.855 187.234 183.223 187.234C182.418 187.234 181.688 187.074 181.031 186.754C180.383 186.426 179.867 185.977 179.484 185.406C179.109 184.828 178.922 184.172 178.922 183.438C178.922 182.773 179.047 182.184 179.297 181.668C179.547 181.152 179.914 180.719 180.398 180.367C180.891 180.008 181.504 179.738 182.238 179.559C182.973 179.371 183.824 179.277 184.793 179.277H186.75ZM195.68 176.945V187H192.293V174.32H195.469L195.68 176.945ZM195.211 180.215H194.273C194.273 179.332 194.379 178.52 194.59 177.777C194.809 177.027 195.125 176.379 195.539 175.832C195.961 175.277 196.48 174.848 197.098 174.543C197.715 174.238 198.43 174.086 199.242 174.086C199.805 174.086 200.32 174.172 200.789 174.344C201.258 174.508 201.66 174.77 201.996 175.129C202.34 175.48 202.605 175.941 202.793 176.512C202.98 177.074 203.074 177.75 203.074 178.539V187H199.699V178.914C199.699 178.336 199.621 177.891 199.465 177.578C199.309 177.266 199.086 177.047 198.797 176.922C198.516 176.797 198.176 176.734 197.777 176.734C197.34 176.734 196.957 176.824 196.629 177.004C196.309 177.184 196.043 177.434 195.832 177.754C195.621 178.066 195.465 178.434 195.363 178.855C195.262 179.277 195.211 179.73 195.211 180.215ZM202.758 179.828L201.551 179.98C201.551 179.152 201.652 178.383 201.855 177.672C202.066 176.961 202.375 176.336 202.781 175.797C203.195 175.258 203.707 174.84 204.316 174.543C204.926 174.238 205.629 174.086 206.426 174.086C207.035 174.086 207.59 174.176 208.09 174.355C208.59 174.527 209.016 174.805 209.367 175.188C209.727 175.562 210 176.055 210.188 176.664C210.383 177.273 210.48 178.02 210.48 178.902V187H207.094V178.902C207.094 178.316 207.016 177.871 206.859 177.566C206.711 177.254 206.492 177.039 206.203 176.922C205.922 176.797 205.586 176.734 205.195 176.734C204.789 176.734 204.434 176.816 204.129 176.98C203.824 177.137 203.57 177.355 203.367 177.637C203.164 177.918 203.012 178.246 202.91 178.621C202.809 178.988 202.758 179.391 202.758 179.828ZM218.93 187.234C217.945 187.234 217.062 187.078 216.281 186.766C215.5 186.445 214.836 186.004 214.289 185.441C213.75 184.879 213.336 184.227 213.047 183.484C212.758 182.734 212.613 181.938 212.613 181.094V180.625C212.613 179.664 212.75 178.785 213.023 177.988C213.297 177.191 213.688 176.5 214.195 175.914C214.711 175.328 215.336 174.879 216.07 174.566C216.805 174.246 217.633 174.086 218.555 174.086C219.453 174.086 220.25 174.234 220.945 174.531C221.641 174.828 222.223 175.25 222.691 175.797C223.168 176.344 223.527 177 223.77 177.766C224.012 178.523 224.133 179.367 224.133 180.297V181.703H214.055V179.453H220.816V179.195C220.816 178.727 220.73 178.309 220.559 177.941C220.395 177.566 220.145 177.27 219.809 177.051C219.473 176.832 219.043 176.723 218.52 176.723C218.074 176.723 217.691 176.82 217.371 177.016C217.051 177.211 216.789 177.484 216.586 177.836C216.391 178.188 216.242 178.602 216.141 179.078C216.047 179.547 216 180.062 216 180.625V181.094C216 181.602 216.07 182.07 216.211 182.5C216.359 182.93 216.566 183.301 216.832 183.613C217.105 183.926 217.434 184.168 217.816 184.34C218.207 184.512 218.648 184.598 219.141 184.598C219.75 184.598 220.316 184.48 220.84 184.246C221.371 184.004 221.828 183.641 222.211 183.156L223.852 184.938C223.586 185.32 223.223 185.688 222.762 186.039C222.309 186.391 221.762 186.68 221.121 186.906C220.48 187.125 219.75 187.234 218.93 187.234ZM229.359 177.027V187H225.984V174.32H229.148L229.359 177.027ZM228.867 180.215H227.953C227.953 179.277 228.074 178.434 228.316 177.684C228.559 176.926 228.898 176.281 229.336 175.75C229.773 175.211 230.293 174.801 230.895 174.52C231.504 174.23 232.184 174.086 232.934 174.086C233.527 174.086 234.07 174.172 234.562 174.344C235.055 174.516 235.477 174.789 235.828 175.164C236.188 175.539 236.461 176.035 236.648 176.652C236.844 177.27 236.941 178.023 236.941 178.914V187H233.543V178.902C233.543 178.34 233.465 177.902 233.309 177.59C233.152 177.277 232.922 177.059 232.617 176.934C232.32 176.801 231.953 176.734 231.516 176.734C231.062 176.734 230.668 176.824 230.332 177.004C230.004 177.184 229.73 177.434 229.512 177.754C229.301 178.066 229.141 178.434 229.031 178.855C228.922 179.277 228.867 179.73 228.867 180.215ZM245.719 174.32V176.711H238.336V174.32H245.719ZM240.164 171.191H243.539V183.18C243.539 183.547 243.586 183.828 243.68 184.023C243.781 184.219 243.93 184.355 244.125 184.434C244.32 184.504 244.566 184.539 244.863 184.539C245.074 184.539 245.262 184.531 245.426 184.516C245.598 184.492 245.742 184.469 245.859 184.445L245.871 186.93C245.582 187.023 245.27 187.098 244.934 187.152C244.598 187.207 244.227 187.234 243.82 187.234C243.078 187.234 242.43 187.113 241.875 186.871C241.328 186.621 240.906 186.223 240.609 185.676C240.312 185.129 240.164 184.41 240.164 183.52V171.191ZM246.797 180.789V180.543C246.797 179.613 246.93 178.758 247.195 177.977C247.461 177.188 247.848 176.504 248.355 175.926C248.863 175.348 249.488 174.898 250.23 174.578C250.973 174.25 251.824 174.086 252.785 174.086C253.746 174.086 254.602 174.25 255.352 174.578C256.102 174.898 256.73 175.348 257.238 175.926C257.754 176.504 258.145 177.188 258.41 177.977C258.676 178.758 258.809 179.613 258.809 180.543V180.789C258.809 181.711 258.676 182.566 258.41 183.355C258.145 184.137 257.754 184.82 257.238 185.406C256.73 185.984 256.105 186.434 255.363 186.754C254.621 187.074 253.77 187.234 252.809 187.234C251.848 187.234 250.992 187.074 250.242 186.754C249.5 186.434 248.871 185.984 248.355 185.406C247.848 184.82 247.461 184.137 247.195 183.355C246.93 182.566 246.797 181.711 246.797 180.789ZM250.172 180.543V180.789C250.172 181.32 250.219 181.816 250.312 182.277C250.406 182.738 250.555 183.145 250.758 183.496C250.969 183.84 251.242 184.109 251.578 184.305C251.914 184.5 252.324 184.598 252.809 184.598C253.277 184.598 253.68 184.5 254.016 184.305C254.352 184.109 254.621 183.84 254.824 183.496C255.027 183.145 255.176 182.738 255.27 182.277C255.371 181.816 255.422 181.32 255.422 180.789V180.543C255.422 180.027 255.371 179.543 255.27 179.09C255.176 178.629 255.023 178.223 254.812 177.871C254.609 177.512 254.34 177.23 254.004 177.027C253.668 176.824 253.262 176.723 252.785 176.723C252.309 176.723 251.902 176.824 251.566 177.027C251.238 177.23 250.969 177.512 250.758 177.871C250.555 178.223 250.406 178.629 250.312 179.09C250.219 179.543 250.172 180.027 250.172 180.543ZM270.164 177.027V187H266.789V174.32H269.953L270.164 177.027ZM269.672 180.215H268.758C268.758 179.277 268.879 178.434 269.121 177.684C269.363 176.926 269.703 176.281 270.141 175.75C270.578 175.211 271.098 174.801 271.699 174.52C272.309 174.23 272.988 174.086 273.738 174.086C274.332 174.086 274.875 174.172 275.367 174.344C275.859 174.516 276.281 174.789 276.633 175.164C276.992 175.539 277.266 176.035 277.453 176.652C277.648 177.27 277.746 178.023 277.746 178.914V187H274.348V178.902C274.348 178.34 274.27 177.902 274.113 177.59C273.957 177.277 273.727 177.059 273.422 176.934C273.125 176.801 272.758 176.734 272.32 176.734C271.867 176.734 271.473 176.824 271.137 177.004C270.809 177.184 270.535 177.434 270.316 177.754C270.105 178.066 269.945 178.434 269.836 178.855C269.727 179.277 269.672 179.73 269.672 180.215ZM279.773 180.789V180.543C279.773 179.613 279.906 178.758 280.172 177.977C280.438 177.188 280.824 176.504 281.332 175.926C281.84 175.348 282.465 174.898 283.207 174.578C283.949 174.25 284.801 174.086 285.762 174.086C286.723 174.086 287.578 174.25 288.328 174.578C289.078 174.898 289.707 175.348 290.215 175.926C290.73 176.504 291.121 177.188 291.387 177.977C291.652 178.758 291.785 179.613 291.785 180.543V180.789C291.785 181.711 291.652 182.566 291.387 183.355C291.121 184.137 290.73 184.82 290.215 185.406C289.707 185.984 289.082 186.434 288.34 186.754C287.598 187.074 286.746 187.234 285.785 187.234C284.824 187.234 283.969 187.074 283.219 186.754C282.477 186.434 281.848 185.984 281.332 185.406C280.824 184.82 280.438 184.137 280.172 183.355C279.906 182.566 279.773 181.711 279.773 180.789ZM283.148 180.543V180.789C283.148 181.32 283.195 181.816 283.289 182.277C283.383 182.738 283.531 183.145 283.734 183.496C283.945 183.84 284.219 184.109 284.555 184.305C284.891 184.5 285.301 184.598 285.785 184.598C286.254 184.598 286.656 184.5 286.992 184.305C287.328 184.109 287.598 183.84 287.801 183.496C288.004 183.145 288.152 182.738 288.246 182.277C288.348 181.816 288.398 181.32 288.398 180.789V180.543C288.398 180.027 288.348 179.543 288.246 179.09C288.152 178.629 288 178.223 287.789 177.871C287.586 177.512 287.316 177.23 286.98 177.027C286.645 176.824 286.238 176.723 285.762 176.723C285.285 176.723 284.879 176.824 284.543 177.027C284.215 177.23 283.945 177.512 283.734 177.871C283.531 178.223 283.383 178.629 283.289 179.09C283.195 179.543 283.148 180.027 283.148 180.543ZM305.074 184.598C305.488 184.598 305.855 184.52 306.176 184.363C306.496 184.199 306.746 183.973 306.926 183.684C307.113 183.387 307.211 183.039 307.219 182.641H310.395C310.387 183.531 310.148 184.324 309.68 185.02C309.211 185.707 308.582 186.25 307.793 186.648C307.004 187.039 306.121 187.234 305.145 187.234C304.16 187.234 303.301 187.07 302.566 186.742C301.84 186.414 301.234 185.961 300.75 185.383C300.266 184.797 299.902 184.117 299.66 183.344C299.418 182.562 299.297 181.727 299.297 180.836V180.496C299.297 179.598 299.418 178.762 299.66 177.988C299.902 177.207 300.266 176.527 300.75 175.949C301.234 175.363 301.84 174.906 302.566 174.578C303.293 174.25 304.145 174.086 305.121 174.086C306.16 174.086 307.07 174.285 307.852 174.684C308.641 175.082 309.258 175.652 309.703 176.395C310.156 177.129 310.387 178 310.395 179.008H307.219C307.211 178.586 307.121 178.203 306.949 177.859C306.785 177.516 306.543 177.242 306.223 177.039C305.91 176.828 305.523 176.723 305.062 176.723C304.57 176.723 304.168 176.828 303.855 177.039C303.543 177.242 303.301 177.523 303.129 177.883C302.957 178.234 302.836 178.637 302.766 179.09C302.703 179.535 302.672 180.004 302.672 180.496V180.836C302.672 181.328 302.703 181.801 302.766 182.254C302.828 182.707 302.945 183.109 303.117 183.461C303.297 183.812 303.543 184.09 303.855 184.293C304.168 184.496 304.574 184.598 305.074 184.598ZM319.195 184.141V178.492C319.195 178.086 319.129 177.738 318.996 177.449C318.863 177.152 318.656 176.922 318.375 176.758C318.102 176.594 317.746 176.512 317.309 176.512C316.934 176.512 316.609 176.578 316.336 176.711C316.062 176.836 315.852 177.02 315.703 177.262C315.555 177.496 315.48 177.773 315.48 178.094H312.105C312.105 177.555 312.23 177.043 312.48 176.559C312.73 176.074 313.094 175.648 313.57 175.281C314.047 174.906 314.613 174.613 315.27 174.402C315.934 174.191 316.676 174.086 317.496 174.086C318.48 174.086 319.355 174.25 320.121 174.578C320.887 174.906 321.488 175.398 321.926 176.055C322.371 176.711 322.594 177.531 322.594 178.516V183.941C322.594 184.637 322.637 185.207 322.723 185.652C322.809 186.09 322.934 186.473 323.098 186.801V187H319.688C319.523 186.656 319.398 186.227 319.312 185.711C319.234 185.188 319.195 184.664 319.195 184.141ZM319.641 179.277L319.664 181.188H317.777C317.332 181.188 316.945 181.238 316.617 181.34C316.289 181.441 316.02 181.586 315.809 181.773C315.598 181.953 315.441 182.164 315.34 182.406C315.246 182.648 315.199 182.914 315.199 183.203C315.199 183.492 315.266 183.754 315.398 183.988C315.531 184.215 315.723 184.395 315.973 184.527C316.223 184.652 316.516 184.715 316.852 184.715C317.359 184.715 317.801 184.613 318.176 184.41C318.551 184.207 318.84 183.957 319.043 183.66C319.254 183.363 319.363 183.082 319.371 182.816L320.262 184.246C320.137 184.566 319.965 184.898 319.746 185.242C319.535 185.586 319.266 185.91 318.938 186.215C318.609 186.512 318.215 186.758 317.754 186.953C317.293 187.141 316.746 187.234 316.113 187.234C315.309 187.234 314.578 187.074 313.922 186.754C313.273 186.426 312.758 185.977 312.375 185.406C312 184.828 311.812 184.172 311.812 183.438C311.812 182.773 311.938 182.184 312.188 181.668C312.438 181.152 312.805 180.719 313.289 180.367C313.781 180.008 314.395 179.738 315.129 179.559C315.863 179.371 316.715 179.277 317.684 179.277H319.641ZM328.758 174.32V187H325.371V174.32H328.758ZM325.16 171.016C325.16 170.523 325.332 170.117 325.676 169.797C326.02 169.477 326.48 169.316 327.059 169.316C327.629 169.316 328.086 169.477 328.43 169.797C328.781 170.117 328.957 170.523 328.957 171.016C328.957 171.508 328.781 171.914 328.43 172.234C328.086 172.555 327.629 172.715 327.059 172.715C326.48 172.715 326.02 172.555 325.676 172.234C325.332 171.914 325.16 171.508 325.16 171.016ZM334.266 174.32L336.363 178.176L338.52 174.32H342.117L338.531 180.52L342.281 187H338.672L336.387 182.922L334.102 187H330.492L334.242 180.52L330.656 174.32H334.266ZM350.602 184.141V178.492C350.602 178.086 350.535 177.738 350.402 177.449C350.27 177.152 350.062 176.922 349.781 176.758C349.508 176.594 349.152 176.512 348.715 176.512C348.34 176.512 348.016 176.578 347.742 176.711C347.469 176.836 347.258 177.02 347.109 177.262C346.961 177.496 346.887 177.773 346.887 178.094H343.512C343.512 177.555 343.637 177.043 343.887 176.559C344.137 176.074 344.5 175.648 344.977 175.281C345.453 174.906 346.02 174.613 346.676 174.402C347.34 174.191 348.082 174.086 348.902 174.086C349.887 174.086 350.762 174.25 351.527 174.578C352.293 174.906 352.895 175.398 353.332 176.055C353.777 176.711 354 177.531 354 178.516V183.941C354 184.637 354.043 185.207 354.129 185.652C354.215 186.09 354.34 186.473 354.504 186.801V187H351.094C350.93 186.656 350.805 186.227 350.719 185.711C350.641 185.188 350.602 184.664 350.602 184.141ZM351.047 179.277L351.07 181.188H349.184C348.738 181.188 348.352 181.238 348.023 181.34C347.695 181.441 347.426 181.586 347.215 181.773C347.004 181.953 346.848 182.164 346.746 182.406C346.652 182.648 346.605 182.914 346.605 183.203C346.605 183.492 346.672 183.754 346.805 183.988C346.938 184.215 347.129 184.395 347.379 184.527C347.629 184.652 347.922 184.715 348.258 184.715C348.766 184.715 349.207 184.613 349.582 184.41C349.957 184.207 350.246 183.957 350.449 183.66C350.66 183.363 350.77 183.082 350.777 182.816L351.668 184.246C351.543 184.566 351.371 184.898 351.152 185.242C350.941 185.586 350.672 185.91 350.344 186.215C350.016 186.512 349.621 186.758 349.16 186.953C348.699 187.141 348.152 187.234 347.52 187.234C346.715 187.234 345.984 187.074 345.328 186.754C344.68 186.426 344.164 185.977 343.781 185.406C343.406 184.828 343.219 184.172 343.219 183.438C343.219 182.773 343.344 182.184 343.594 181.668C343.844 181.152 344.211 180.719 344.695 180.367C345.188 180.008 345.801 179.738 346.535 179.559C347.27 179.371 348.121 179.277 349.09 179.277H351.047Z" fill="#C4C4CC"/>
</g>
</svg>
